<svg xmlns="http://www.w3.org/2000/svg" width="225" height="225" viewBox="0 0 225 225">
<g>
<path d="M 150.18 218.99 C122.38,221.79 86.42,220.02 79.40,215.51 C78.25,214.76 76.73,212.77 76.03,211.08 C75.33,209.38 74.38,208.00 73.91,208.00 C73.44,208.00 73.32,207.32 73.64,206.50 C73.95,205.68 73.76,205.00 73.20,205.00 C72.64,205.00 72.42,204.10 72.71,203.00 C73.00,201.90 72.84,201.00 72.37,200.99 C71.89,200.99 71.41,198.96 71.30,196.49 C71.18,193.91 71.54,192.00 72.14,192.00 C72.71,192.00 72.01,190.62 70.59,188.92 C68.72,186.71 68.17,185.17 68.61,183.42 C68.97,182.00 68.78,181.00 68.16,181.00 C66.61,181.00 60.89,162.52 55.01,138.50 C49.85,117.44 49.14,114.31 48.39,114.30 C48.27,114.30 48.14,114.39 47.98,114.50 C47.92,114.54 47.85,114.59 47.77,114.64 C47.12,115.04 46.98,114.84 47.41,114.14 C47.81,113.50 47.58,110.39 46.91,107.24 C46.23,104.08 45.75,100.46 45.83,99.20 C45.92,97.93 45.65,97.10 45.24,97.35 C44.07,98.08 44.60,90.00 45.80,88.80 C46.57,88.03 48.11,88.04 51.18,88.82 C53.74,89.47 55.86,89.54 56.39,89.01 C56.92,88.48 56.11,87.86 54.39,87.51 C46.14,85.78 45.50,85.46 45.20,82.89 C44.42,76.26 50.09,74.29 78.00,71.55 C87.07,70.66 97.25,69.49 100.62,68.96 C103.98,68.43 109.15,68.01 112.12,68.03 L 117.50 68.07 L 115.00 70.10 C113.62,71.21 108.90,75.27 104.50,79.11 C100.10,82.95 94.73,87.08 92.58,88.29 C88.46,90.61 86.05,94.04 89.61,92.51 C90.65,92.06 101.62,91.34 114.00,90.90 C137.24,90.08 162.77,88.70 177.53,87.47 C182.20,87.08 185.99,87.15 185.97,87.63 C185.95,88.11 185.28,89.37 184.47,90.44 C183.41,91.84 183.00,95.11 183.00,102.14 C183.00,107.51 182.51,112.99 181.90,114.31 C181.04,116.21 181.16,117.41 182.47,119.93 C183.73,122.37 183.85,123.47 182.99,124.52 C182.35,125.28 181.00,136.01 179.94,148.69 C178.89,161.24 177.55,174.39 176.96,177.92 C176.37,181.45 176.17,186.07 176.53,188.18 C176.89,190.29 176.61,195.21 175.91,199.11 C174.87,204.93 174.22,206.40 172.29,207.28 C170.64,208.03 170.31,208.57 171.18,209.11 C172.12,209.69 171.99,210.35 170.64,211.85 C167.64,215.16 159.31,218.07 150.18,218.99 ZM 132.01 167.41 C143.87,172.55 158.00,164.89 158.00,153.31 C158.00,148.66 155.47,142.64 152.32,139.79 C140.91,129.47 121.00,137.24 121.00,152.00 C121.00,158.79 124.98,164.36 132.01,167.41 ZM 89.00 169.41 C95.21,172.10 103.29,170.76 108.32,166.21 C113.38,161.64 115.41,152.61 112.60,147.20 C106.71,135.89 88.05,133.34 82.30,143.07 C81.38,144.62 80.29,145.68 79.87,145.42 C78.55,144.60 77.00,148.69 77.00,152.98 C77.00,159.81 81.70,166.24 89.00,169.41 ZM 111.05 190.10 C112.13,192.10 112.93,192.13 122.00,190.41 C123.98,190.04 124.19,190.16 123.00,191.01 C121.79,191.88 121.99,192.03 124.00,191.79 C126.10,191.55 126.55,190.90 126.81,187.77 C127.05,184.92 127.95,183.36 130.71,181.09 C134.09,178.30 134.23,177.96 133.08,175.20 C131.55,171.50 126.37,166.45 122.68,165.06 C117.30,163.03 114.23,163.75 109.46,168.14 C103.45,173.69 102.90,176.17 106.89,179.90 C108.87,181.74 110.00,183.78 110.00,185.47 C110.00,186.93 110.47,189.02 111.05,190.10 ZM 111.00 222.07 C112.75,222.60 111.70,222.82 107.50,222.79 C100.65,222.74 91.18,221.52 90.22,220.55 C89.39,219.72 107.65,221.06 111.00,222.07 ZM 40.00 84.00 C40.00,84.55 39.55,85.00 39.00,85.00 C38.45,85.00 38.00,84.55 38.00,84.00 C38.00,83.45 38.45,83.00 39.00,83.00 C39.55,83.00 40.00,83.45 40.00,84.00 Z" fill="rgb(16,144,197)"/>
<path d="M 150.18 218.99 C159.31,218.07 167.64,215.16 170.64,211.85 C171.99,210.35 172.12,209.69 171.18,209.11 C170.31,208.57 170.64,208.03 172.29,207.28 C174.22,206.40 174.87,204.93 175.91,199.11 C176.61,195.21 176.89,190.29 176.53,188.18 C176.17,186.07 176.37,181.45 176.96,177.92 C177.55,174.39 178.89,161.24 179.94,148.69 C181.00,136.01 182.35,125.28 182.99,124.52 C183.85,123.47 183.73,122.37 182.47,119.93 C181.16,117.41 181.04,116.21 181.90,114.31 C182.51,112.99 183.00,107.51 183.00,102.14 C183.00,95.11 183.41,91.84 184.47,90.44 C185.28,89.37 185.95,88.11 185.97,87.63 C185.99,87.15 182.20,87.08 177.53,87.47 C177.26,87.49 176.99,87.51 176.71,87.54 C177.98,87.43 179.09,87.32 180.00,87.22 L 186.50 86.50 L 187.15 81.00 C187.51,77.97 187.85,71.59 187.90,66.82 C188.02,56.68 187.50,56.17 178.74,57.89 C175.86,58.46 166.07,59.61 157.00,60.45 C147.93,61.30 138.04,62.23 135.03,62.53 C127.78,63.25 51.54,59.83 40.00,58.28 C35.93,57.73 35.63,57.83 36.84,59.29 C37.57,60.18 37.87,61.40 37.50,62.00 C36.24,64.03 39.10,72.93 41.64,74.93 C44.02,76.81 44.18,76.81 48.29,75.01 C53.93,72.55 63.91,71.17 85.50,69.88 C90.53,69.58 95.92,69.26 100.50,68.98 C97.02,69.52 86.97,70.67 78.00,71.55 C50.09,74.29 44.42,76.26 45.20,82.89 C45.50,85.46 46.14,85.78 54.39,87.51 C56.11,87.86 56.92,88.48 56.39,89.01 C55.86,89.54 53.74,89.47 51.18,88.82 C48.11,88.04 46.57,88.03 45.80,88.80 C44.60,90.00 44.07,98.08 45.24,97.35 C45.65,97.10 45.92,97.93 45.83,99.20 C45.75,100.46 46.23,104.08 46.91,107.24 C47.58,110.39 47.81,113.50 47.41,114.14 L 47.41 114.15 C47.17,106.49 41.08,80.00 39.36,80.00 C39.04,80.00 39.07,81.12 39.41,82.50 C39.47,82.73 39.51,82.95 39.55,83.16 C39.39,83.06 39.20,83.00 39.00,83.00 C38.75,83.00 38.52,83.09 38.34,83.25 C38.09,82.24 37.85,80.88 37.70,79.39 C37.38,76.31 36.11,68.60 34.87,62.26 L 32.61 50.72 L 35.56 48.37 C38.43,46.06 44.55,44.21 45.65,45.31 C46.82,46.49 44.69,48.05 40.44,49.12 C35.45,50.38 34.98,51.29 38.25,53.42 C44.64,57.59 63.30,58.95 115.00,59.02 C156.04,59.08 165.18,58.39 176.03,54.44 C184.41,51.38 191.40,50.04 192.22,51.33 C193.34,53.09 193.15,57.43 191.47,68.50 C190.63,74.00 189.49,81.65 188.94,85.50 C188.39,89.35 187.04,106.45 185.96,123.50 C183.91,155.51 181.73,180.05 180.00,190.50 C179.46,193.80 179.01,198.30 179.00,200.50 C178.98,206.20 177.31,211.47 174.44,214.89 C172.35,217.37 170.23,218.25 161.01,220.45 C154.98,221.89 145.88,223.44 140.78,223.90 C134.37,224.47 145.95,224.77 178.25,224.86 L 225.00 225.00 L 0.00 225.00 L 53.25 224.84 C82.54,224.75 104.93,224.53 103.00,224.35 C87.49,222.87 69.68,218.15 68.04,215.08 C66.77,212.71 59.98,184.72 60.12,182.44 C60.22,180.75 60.29,180.73 60.69,182.25 C61.32,184.66 63.00,184.46 63.00,181.97 C63.00,178.85 57.62,158.29 57.26,160.03 C57.08,160.87 57.59,164.69 58.40,168.52 C59.69,174.68 59.77,177.21 58.64,175.92 C58.00,175.19 50.08,138.86 48.41,129.00 C47.53,123.78 47.06,117.70 47.37,115.50 C47.39,115.31 47.41,115.08 47.41,114.82 C47.51,114.79 47.63,114.73 47.77,114.64 C47.85,114.59 47.92,114.54 47.98,114.50 C48.14,114.39 48.27,114.30 48.39,114.30 C49.14,114.31 49.85,117.44 55.01,138.50 C60.89,162.52 66.61,181.00 68.16,181.00 C68.78,181.00 68.97,182.00 68.61,183.42 C68.17,185.17 68.72,186.71 70.59,188.92 C72.01,190.62 72.71,192.00 72.14,192.00 C71.54,192.00 71.18,193.91 71.30,196.49 C71.41,198.96 71.89,200.99 72.37,200.99 C72.84,201.00 73.00,201.90 72.71,203.00 C72.42,204.10 72.64,205.00 73.20,205.00 C73.31,205.00 73.41,205.03 73.49,205.08 C73.40,205.03 73.30,205.00 73.18,205.00 C72.63,205.00 72.42,204.10 72.71,203.00 C73.00,201.88 72.74,201.00 72.12,201.00 C71.50,201.00 71.00,200.31 71.00,199.47 C71.00,197.48 68.11,190.56 67.53,191.14 C66.90,191.77 69.60,202.96 71.57,207.88 C73.25,212.09 75.63,213.83 74.12,209.75 C73.91,209.17 73.75,208.53 73.68,207.93 C73.74,207.97 73.82,208.00 73.91,208.00 C74.38,208.00 75.33,209.38 76.03,211.08 C76.73,212.77 78.25,214.76 79.40,215.51 C86.42,220.02 122.38,221.79 150.18,218.99 ZM 132.01 167.41 C124.98,164.36 121.00,158.79 121.00,152.00 C121.00,137.24 140.91,129.47 152.32,139.79 C155.47,142.64 158.00,148.66 158.00,153.31 C158.00,164.89 143.87,172.55 132.01,167.41 ZM 89.00 169.41 C81.70,166.24 77.00,159.81 77.00,152.98 C77.00,148.69 78.55,144.60 79.87,145.42 C80.29,145.68 81.38,144.62 82.30,143.07 C88.05,133.34 106.71,135.89 112.60,147.20 C115.41,152.61 113.38,161.64 108.32,166.21 C103.29,170.76 95.21,172.10 89.00,169.41 ZM 132.40 165.10 C149.54,172.88 164.59,154.69 151.50,142.00 C148.40,139.00 147.24,138.55 141.66,138.19 C130.60,137.49 124.00,142.68 124.00,152.08 C124.00,157.71 127.26,162.76 132.40,165.10 ZM 89.48 167.61 C99.35,171.91 110.53,165.49 111.70,154.86 C112.29,149.46 109.36,144.62 103.47,141.28 C98.77,138.62 95.43,138.52 88.00,140.83 C83.49,142.23 82.19,143.17 80.75,146.02 C79.79,147.93 79.00,151.07 79.01,153.00 L 79.01 156.50 L 80.97 153.28 C83.61,148.95 87.70,147.92 90.17,150.96 C92.68,154.07 92.46,156.65 89.52,158.58 C87.50,159.90 86.44,160.00 83.85,159.10 C82.11,158.49 80.50,158.17 80.28,158.39 C79.46,159.21 86.58,166.34 89.48,167.61 ZM 111.05 190.10 C110.47,189.02 110.00,186.93 110.00,185.47 C110.00,183.78 108.87,181.74 106.89,179.90 C102.90,176.17 103.45,173.69 109.46,168.14 C114.23,163.75 117.30,163.03 122.68,165.06 C126.37,166.45 131.55,171.50 133.08,175.20 C134.23,177.96 134.09,178.30 130.71,181.09 C127.95,183.36 127.05,184.92 126.81,187.77 C126.55,190.90 126.10,191.55 124.00,191.79 C121.99,192.03 121.79,191.88 123.00,191.01 C124.19,190.16 123.98,190.04 122.00,190.41 C112.93,192.13 112.13,192.10 111.05,190.10 ZM 56.83 44.56 C50.66,46.20 49.99,46.27 50.02,45.25 C50.10,41.34 63.25,39.02 85.88,38.94 C95.02,38.90 109.03,38.51 117.00,38.06 C131.95,37.22 135.31,37.80 131.56,40.57 C129.19,42.32 114.20,42.52 105.56,40.93 C101.89,40.25 99.40,40.20 98.80,40.80 C98.20,41.40 96.37,41.37 93.85,40.73 C89.42,39.61 66.56,41.97 56.83,44.56 ZM 105.94 176.88 C107.20,179.25 108.61,179.48 112.56,177.98 C114.40,177.28 117.10,177.29 121.17,178.03 C128.00,179.27 131.00,178.65 131.00,176.00 C131.00,171.96 128.65,171.15 117.87,171.52 C106.51,171.91 103.90,173.09 105.94,176.88 ZM 134.00 157.91 C131.90,159.40 129.81,159.25 127.22,157.44 C124.45,155.50 124.40,153.03 127.07,149.63 C129.62,146.39 133.33,146.21 135.44,149.22 C137.56,152.25 137.40,154.00 135.00,154.00 C132.79,154.00 132.29,155.55 134.25,156.34 C135.19,156.72 135.13,157.11 134.00,157.91 ZM 68.25 211.00 L 69.47 214.50 L 69.82 211.56 C70.17,208.64 65.41,190.37 63.83,188.55 C61.74,186.15 64.54,200.39 68.25,211.00 ZM 120.63 188.47 C121.00,189.44 122.13,189.98 123.38,189.80 C125.02,189.57 125.57,188.69 125.80,185.91 C126.13,182.00 124.10,179.36 121.51,180.36 C119.96,180.95 119.47,185.46 120.63,188.47 ZM 112.41 188.62 C112.70,189.38 113.57,190.00 114.35,190.00 C116.66,190.00 118.16,187.34 117.82,183.82 C117.37,179.13 113.97,179.17 112.75,183.87 C112.27,185.73 112.12,187.86 112.41,188.62 ZM 111.00 222.07 C107.65,221.06 89.39,219.72 90.22,220.55 C91.18,221.52 100.65,222.74 107.50,222.79 C111.70,222.82 112.75,222.60 111.00,222.07 ZM 88.19 91.91 C87.85,92.96 88.21,93.11 89.61,92.50 C90.37,92.17 96.28,91.71 104.12,91.32 C96.26,91.72 90.36,92.19 89.61,92.51 C87.83,93.27 87.54,92.80 88.22,91.84 C88.21,91.87 88.20,91.89 88.19,91.91 ZM 115.80 68.06 L 117.50 67.95 L 117.36 68.07 ZM 39.12 84.99 C39.19,84.98 39.26,84.97 39.33,84.94 C39.28,84.98 39.22,85.00 39.16,85.00 C39.14,85.00 39.13,85.00 39.12,84.99 Z" fill="rgb(8,15,18)"/>
<path d="M 109.64 90.01 C108.64,90.41 111.32,90.70 115.36,90.85 C114.90,90.87 114.45,90.88 114.00,90.90 C110.53,91.02 107.18,91.17 104.12,91.32 C96.81,91.68 91.17,92.11 89.83,92.43 C93.15,90.80 101.11,84.24 112.35,73.76 C122.60,64.21 123.12,63.54 120.79,62.92 C120.01,62.71 116.38,62.42 111.37,62.15 C123.38,62.57 132.71,62.76 135.03,62.53 C138.04,62.23 147.93,61.30 157.00,60.45 C166.07,59.61 175.86,58.46 178.74,57.89 C187.50,56.17 188.02,56.68 187.90,66.82 C187.85,71.59 187.51,77.97 187.15,81.00 L 186.50 86.50 L 180.00 87.22 C179.09,87.32 177.98,87.42 176.71,87.54 L 176.71 87.54 C172.34,87.89 167.09,88.26 161.28,88.62 C162.52,88.48 163.32,88.30 163.44,88.09 C163.77,87.57 161.42,87.42 157.87,87.75 C152.25,88.26 151.59,88.10 149.94,85.92 C148.95,84.60 147.78,83.89 147.35,84.32 C146.91,84.75 147.21,85.51 148.00,86.00 C149.16,86.72 148.96,87.09 146.98,87.89 C145.06,88.65 146.59,88.89 153.69,88.94 C154.64,88.94 155.57,88.94 156.45,88.91 C150.61,89.26 144.33,89.59 137.89,89.90 C139.31,89.51 139.55,88.98 139.26,87.90 C138.79,86.09 138.69,86.10 136.28,87.99 C134.38,89.49 133.34,89.71 131.90,88.95 C128.92,87.35 128.61,83.62 130.90,76.83 C133.06,70.44 133.65,65.48 132.15,66.41 C131.68,66.70 130.29,70.66 129.06,75.22 C126.08,86.24 125.32,88.00 123.52,88.00 C121.49,88.00 121.58,87.16 124.45,79.55 C125.82,75.91 126.48,72.80 125.97,72.48 C124.24,71.41 121.01,74.05 118.89,78.28 C115.89,84.25 112.15,89.00 109.64,90.01 ZM 162.15 0.00 L 163.61 0.00 L 168.22 2.93 C180.40,10.65 190.47,30.62 192.45,51.00 C192.49,51.34 192.52,51.68 192.54,52.01 C192.45,51.74 192.35,51.52 192.22,51.33 C191.40,50.04 184.41,51.38 176.03,54.44 C167.52,57.54 160.06,58.63 137.46,58.93 C137.92,58.41 137.97,58.00 137.55,58.00 C137.07,58.00 137.50,57.10 138.50,56.00 C139.50,54.90 140.85,54.00 141.50,54.00 C143.09,54.00 151.33,48.00 150.66,47.33 C150.38,47.04 148.12,48.20 145.64,49.90 C138.48,54.83 134.13,53.49 137.33,47.34 C139.13,43.88 143.75,39.42 144.63,40.30 C144.98,40.65 144.52,42.08 143.61,43.47 C142.70,44.86 142.36,46.00 142.86,46.00 C143.36,46.00 144.51,44.88 145.41,43.50 C147.11,40.90 151.31,40.07 152.55,42.09 C153.04,42.87 153.53,42.87 154.31,42.09 C154.91,41.49 156.18,41.00 157.14,41.00 C158.27,41.00 158.82,40.29 158.72,38.97 C158.60,37.36 158.04,37.04 156.03,37.41 C147.22,39.08 145.00,39.15 145.00,37.78 C145.00,37.01 147.93,30.12 151.50,22.46 C155.07,14.80 158.00,7.80 158.00,6.90 C158.00,6.01 158.93,4.08 160.07,2.63 ZM 105.94 176.88 C103.90,173.09 106.51,171.91 117.87,171.52 C128.65,171.15 131.00,171.96 131.00,176.00 C131.00,178.65 128.00,179.27 121.17,178.03 C117.10,177.29 114.40,177.28 112.56,177.98 C108.61,179.48 107.20,179.25 105.94,176.88 ZM 145.14 56.52 C143.28,58.38 166.75,54.63 171.25,52.35 C174.07,50.91 174.37,50.24 174.02,46.12 C173.84,43.98 174.11,43.81 176.66,44.45 C179.75,45.23 179.35,44.37 175.77,42.55 C173.85,41.57 173.55,40.74 173.83,37.09 C174.08,33.85 173.83,32.89 172.83,33.23 C172.10,33.47 171.50,34.54 171.50,35.59 C171.50,38.64 170.10,40.00 166.94,40.00 C163.97,40.00 162.95,41.41 165.25,42.34 C166.19,42.72 166.13,43.11 165.00,43.91 C163.85,44.72 164.50,44.97 167.82,44.98 C171.67,45.00 172.10,45.23 171.82,47.15 C171.24,51.06 166.97,53.06 155.97,54.60 C150.28,55.39 145.41,56.26 145.14,56.52 ZM 160.32 79.56 C165.23,81.10 166.30,81.21 168.42,80.39 C171.21,79.32 170.11,78.50 165.73,78.39 C160.74,78.26 149.07,72.80 152.59,72.24 C153.74,72.05 157.00,72.82 159.84,73.94 C162.68,75.06 165.00,75.75 165.00,75.47 C165.00,74.26 158.24,71.01 155.71,71.00 C154.18,71.00 151.16,70.10 149.00,69.00 C143.18,66.03 142.18,66.56 146.05,70.57 C150.32,74.98 154.89,77.86 160.32,79.56 ZM 99.50 89.52 L 95.50 90.91 L 100.75 90.96 C103.96,90.98 106.00,90.57 106.00,89.89 C106.00,89.28 109.60,84.72 114.00,79.76 C118.40,74.79 122.00,70.25 122.00,69.65 C122.00,69.05 117.84,72.97 112.75,78.35 C106.14,85.34 102.36,88.53 99.50,89.52 ZM 121.46 84.00 C120.77,85.38 119.27,87.35 118.12,88.39 C116.31,90.03 115.96,90.07 115.45,88.73 C114.83,87.13 121.57,76.00 123.16,76.00 C124.19,76.00 123.25,80.44 121.46,84.00 ZM 162.00 34.26 C162.00,34.72 164.02,33.71 166.49,32.01 C170.94,28.95 173.72,25.38 172.56,24.22 C171.88,23.55 162.00,32.95 162.00,34.26 ZM 132.82 58.98 C131.26,58.99 129.64,59.00 127.95,59.01 L 129.50 56.64 C131.31,53.87 134.00,53.07 134.00,55.30 C134.00,56.01 133.50,57.10 132.90,57.70 C132.37,58.23 132.32,58.63 132.82,58.98 ZM 112.02 59.02 C83.73,58.95 65.71,58.46 54.30,57.30 C62.29,58.00 73.98,58.39 91.64,58.68 ZM 191.35 69.26 C190.89,72.51 190.29,76.50 189.53,81.50 C188.69,87.00 187.10,105.68 185.99,123.00 C185.30,133.83 184.60,143.78 183.90,152.62 C184.59,143.90 185.28,134.11 185.96,123.50 C187.04,106.45 188.39,89.35 188.94,85.50 C189.47,81.82 190.53,74.68 191.35,69.26 ZM 84.93 61.06 C71.80,60.50 58.76,59.78 49.86,59.13 C58.73,59.75 71.72,60.45 84.93,61.06 ZM 38.62 58.10 C36.44,57.90 35.99,58.05 36.42,58.75 C35.88,57.95 36.32,57.83 38.62,58.10 ZM 88.19 91.91 C88.20,91.89 88.20,91.87 88.21,91.85 C88.01,92.55 88.17,92.87 88.66,92.83 C88.06,92.95 87.94,92.66 88.19,91.91 ZM 37.68 53.04 C36.26,52.03 35.82,51.31 36.45,50.67 C35.83,51.30 36.27,52.02 37.68,53.04 ZM 37.50 60.48 C37.70,61.07 37.72,61.65 37.50,62.00 C37.72,61.65 37.70,61.08 37.50,60.48 Z" fill="rgb(230,198,36)"/>
<path d="M 0.00 112.50 L 0.00 0.00 L 81.07 0.00 L 162.15 0.00 L 160.07 2.63 C158.93,4.08 158.00,6.01 158.00,6.90 C158.00,7.80 155.07,14.80 151.50,22.46 C147.93,30.12 145.00,37.01 145.00,37.78 C145.00,39.15 147.22,39.08 156.03,37.41 C158.04,37.04 158.60,37.36 158.72,38.97 C158.82,40.29 158.27,41.00 157.14,41.00 C156.18,41.00 154.91,41.49 154.31,42.09 C153.53,42.87 153.04,42.87 152.55,42.09 C151.31,40.07 147.11,40.90 145.41,43.50 C144.51,44.88 143.36,46.00 142.86,46.00 C142.36,46.00 142.70,44.86 143.61,43.47 C144.52,42.08 144.98,40.65 144.63,40.30 C143.75,39.42 139.13,43.88 137.33,47.34 C134.13,53.49 138.48,54.83 145.64,49.90 C148.12,48.20 150.38,47.04 150.66,47.33 C151.33,48.00 143.09,54.00 141.50,54.00 C140.85,54.00 139.50,54.90 138.50,56.00 C137.50,57.10 137.07,58.00 137.55,58.00 C138.02,58.00 137.91,58.49 137.30,59.10 C136.69,59.71 135.23,59.89 134.00,59.50 C132.40,58.99 132.10,58.50 132.90,57.70 C133.50,57.10 134.00,56.01 134.00,55.30 C134.00,53.07 131.31,53.87 129.50,56.64 L 127.77 59.28 L 91.64 58.68 C54.50,58.07 43.74,57.03 38.36,53.50 C34.98,51.29 35.41,50.39 40.44,49.12 C44.69,48.05 46.82,46.49 45.65,45.31 C44.55,44.21 38.43,46.06 35.56,48.37 L 32.61 50.72 L 34.87 62.26 C36.11,68.60 37.38,76.31 37.70,79.39 C38.02,82.48 38.68,85.00 39.16,85.00 C39.64,85.00 39.76,83.88 39.41,82.50 C39.07,81.12 39.04,80.00 39.36,80.00 C41.20,80.00 48.07,110.47 47.37,115.50 C47.06,117.70 47.53,123.78 48.41,129.00 C50.08,138.86 58.00,175.19 58.64,175.92 C59.77,177.21 59.69,174.68 58.40,168.52 C57.59,164.69 57.08,160.87 57.26,160.03 C57.62,158.29 63.00,178.85 63.00,181.97 C63.00,184.46 61.32,184.66 60.69,182.25 C60.29,180.73 60.22,180.75 60.12,182.44 C59.98,184.72 66.77,212.71 68.04,215.08 C69.68,218.15 87.49,222.87 103.00,224.35 C104.93,224.53 82.54,224.75 53.25,224.84 L 0.00 225.00 L 0.00 112.50 ZM 56.83 44.56 C66.56,41.97 89.42,39.61 93.85,40.73 C96.37,41.37 98.20,41.40 98.80,40.80 C99.40,40.20 101.89,40.25 105.56,40.93 C114.20,42.52 129.19,42.32 131.56,40.57 C135.31,37.80 131.95,37.22 117.00,38.06 C109.03,38.51 95.02,38.90 85.88,38.94 C63.25,39.02 50.10,41.34 50.02,45.25 C49.99,46.27 50.66,46.20 56.83,44.56 ZM 140.78 223.90 C145.88,223.44 154.98,221.89 161.01,220.45 C170.23,218.25 172.35,217.37 174.44,214.89 C177.31,211.47 178.98,206.20 179.00,200.50 C179.01,198.30 179.46,193.80 180.00,190.50 C181.74,180.03 183.91,155.48 185.99,123.00 C187.10,105.68 188.69,87.00 189.53,81.50 C192.81,59.97 193.06,57.29 192.45,51.00 C190.47,30.62 180.40,10.65 168.22,2.93 L 163.61 -0.00 L 194.30 -0.00 L 225.00 0.00 L 225.00 112.50 L 225.00 225.00 L 178.25 224.86 C145.95,224.77 134.37,224.47 140.78,223.90 ZM 68.25 211.00 C64.54,200.39 61.74,186.15 63.83,188.55 C65.41,190.37 70.17,208.64 69.82,211.56 L 69.47 214.50 L 68.25 211.00 ZM 71.57 207.88 C69.60,202.96 66.90,191.77 67.53,191.14 C68.11,190.56 71.00,197.48 71.00,199.47 C71.00,200.31 71.50,201.00 72.12,201.00 C72.74,201.00 73.00,201.88 72.71,203.00 C72.42,204.10 72.63,205.00 73.18,205.00 C73.72,205.00 73.97,205.56 73.73,206.25 C73.49,206.94 73.66,208.51 74.12,209.75 C75.63,213.83 73.25,212.09 71.57,207.88 ZM 112.41 188.62 C112.12,187.86 112.27,185.73 112.75,183.87 C113.97,179.17 117.37,179.13 117.82,183.82 C118.16,187.34 116.66,190.00 114.35,190.00 C113.57,190.00 112.70,189.38 112.41,188.62 ZM 120.63 188.47 C119.47,185.46 119.96,180.95 121.51,180.36 C124.10,179.36 126.13,182.00 125.80,185.91 C125.57,188.69 125.02,189.57 123.38,189.80 C122.13,189.98 121.00,189.44 120.63,188.47 ZM 89.48 167.61 C86.58,166.34 79.46,159.21 80.28,158.39 C80.50,158.17 82.11,158.49 83.85,159.10 C86.44,160.00 87.50,159.90 89.52,158.58 C92.46,156.65 92.68,154.07 90.17,150.96 C87.70,147.92 83.61,148.95 80.97,153.28 L 79.01 156.50 L 79.01 153.00 C79.00,151.07 79.79,147.93 80.75,146.02 C82.19,143.17 83.49,142.23 88.00,140.83 C95.43,138.52 98.77,138.62 103.47,141.28 C109.36,144.62 112.29,149.46 111.70,154.86 C110.53,165.49 99.35,171.91 89.48,167.61 ZM 132.40 165.10 C127.26,162.76 124.00,157.71 124.00,152.08 C124.00,142.68 130.60,137.49 141.66,138.19 C147.24,138.55 148.40,139.00 151.50,142.00 C164.59,154.69 149.54,172.88 132.40,165.10 ZM 134.00 157.91 C135.13,157.11 135.19,156.72 134.25,156.34 C132.29,155.55 132.79,154.00 135.00,154.00 C137.40,154.00 137.56,152.25 135.44,149.22 C133.33,146.21 129.62,146.39 127.07,149.63 C124.40,153.03 124.45,155.50 127.22,157.44 C129.81,159.25 131.90,159.40 134.00,157.91 ZM 88.24 91.75 C88.47,91.06 90.42,89.51 92.58,88.29 C94.73,87.08 100.10,82.95 104.50,79.11 C108.90,75.27 113.62,71.19 115.00,70.04 L 117.50 67.95 L 110.50 68.38 C106.65,68.61 95.40,69.29 85.50,69.88 C63.91,71.17 53.93,72.55 48.29,75.01 C44.18,76.81 44.02,76.81 41.64,74.93 C39.10,72.93 36.24,64.03 37.50,62.00 C37.87,61.40 37.57,60.19 36.84,59.31 C35.64,57.86 36.04,57.77 41.01,58.36 C49.16,59.32 75.83,60.82 98.40,61.58 C109.35,61.95 119.43,62.55 120.79,62.92 C123.12,63.54 122.60,64.21 112.35,73.76 C96.31,88.71 86.95,95.69 88.24,91.75 ZM 99.50 89.52 C102.36,88.53 106.14,85.34 112.75,78.35 C117.84,72.97 122.00,69.05 122.00,69.65 C122.00,70.25 118.40,74.79 114.00,79.76 C109.60,84.72 106.00,89.28 106.00,89.89 C106.00,90.57 103.96,90.98 100.75,90.96 L 95.50 90.91 L 99.50 89.52 ZM 109.64 90.01 C112.15,89.00 115.89,84.25 118.89,78.28 C121.01,74.05 124.24,71.41 125.97,72.48 C126.48,72.80 125.82,75.91 124.45,79.55 C121.58,87.16 121.49,88.00 123.52,88.00 C125.32,88.00 126.08,86.24 129.06,75.22 C130.29,70.66 131.68,66.70 132.15,66.41 C133.65,65.48 133.06,70.44 130.90,76.83 C128.61,83.62 128.92,87.35 131.90,88.95 C133.34,89.71 134.38,89.49 136.28,87.99 C138.69,86.10 138.79,86.09 139.26,87.90 C139.67,89.46 139.01,89.86 135.24,90.38 C128.24,91.34 107.11,91.03 109.64,90.01 ZM 121.46 84.00 C123.25,80.44 124.19,76.00 123.16,76.00 C121.57,76.00 114.83,87.13 115.45,88.73 C115.96,90.07 116.31,90.03 118.12,88.39 C119.27,87.35 120.77,85.38 121.46,84.00 ZM 146.98 87.89 C148.96,87.09 149.16,86.72 148.00,86.00 C147.21,85.51 146.91,84.75 147.35,84.32 C147.78,83.89 148.95,84.60 149.94,85.92 C151.59,88.10 152.25,88.26 157.87,87.75 C161.42,87.42 163.77,87.57 163.44,88.09 C163.13,88.59 158.75,88.97 153.69,88.94 C146.59,88.89 145.06,88.65 146.98,87.89 ZM 160.32 79.56 C154.89,77.86 150.32,74.98 146.05,70.57 C142.18,66.56 143.18,66.03 149.00,69.00 C151.16,70.10 154.18,71.00 155.71,71.00 C158.24,71.01 165.00,74.26 165.00,75.47 C165.00,75.75 162.68,75.06 159.84,73.94 C157.00,72.82 153.74,72.05 152.59,72.24 C149.07,72.80 160.74,78.26 165.73,78.39 C170.11,78.50 171.21,79.32 168.42,80.39 C166.30,81.21 165.23,81.10 160.32,79.56 ZM 145.14 56.52 C145.41,56.26 150.28,55.39 155.97,54.60 C166.97,53.06 171.24,51.06 171.82,47.15 C172.10,45.23 171.67,45.00 167.82,44.98 C164.50,44.97 163.85,44.72 165.00,43.91 C166.13,43.11 166.19,42.72 165.25,42.34 C162.95,41.41 163.97,40.00 166.94,40.00 C170.10,40.00 171.50,38.64 171.50,35.59 C171.50,34.54 172.10,33.47 172.83,33.23 C173.83,32.89 174.08,33.85 173.83,37.09 C173.55,40.74 173.85,41.57 175.77,42.55 C179.35,44.37 179.75,45.23 176.66,44.45 C174.11,43.81 173.84,43.98 174.02,46.12 C174.37,50.24 174.07,50.91 171.25,52.35 C166.75,54.63 143.28,58.38 145.14,56.52 ZM 162.00 34.26 C162.00,32.95 171.88,23.55 172.56,24.22 C173.72,25.38 170.94,28.95 166.49,32.01 C164.02,33.71 162.00,34.72 162.00,34.26 Z" fill="rgb(254,254,254)"/>
</g>
</svg>