<svg xmlns="http://www.w3.org/2000/svg" width="148" height="148" viewBox="0 0 148 148">
<g>
<path d="M 68.81 81.55 C68.09,81.96 66.57,83.13 65.43,84.15 C63.41,85.97 63.31,85.96 61.25,83.76 C57.49,79.74 55.42,70.97 58.25,71.02 C58.94,71.03 61.42,71.91 63.76,72.98 C70.81,76.18 74.02,76.37 80.56,73.99 L 80.87 73.88 C87.29,71.54 89.20,70.84 89.76,71.43 C90.00,71.68 90.00,72.16 90.00,72.84 L 90.00 72.92 C90.00,75.64 87.41,81.89 85.33,84.19 C83.81,85.87 83.59,85.83 80.79,83.48 C77.30,80.54 76.42,80.43 75.13,82.73 C74.22,84.36 74.05,84.35 72.15,82.63 C70.97,81.57 69.58,81.12 68.81,81.55 ZM 94.15 59.57 C92.92,62.27 90.84,62.71 89.12,60.64 C88.47,59.87 86.91,59.49 85.49,59.76 C83.28,60.18 83.00,59.89 83.00,57.19 C83.00,49.83 92.87,47.63 94.62,54.60 C94.97,56.00 94.76,58.24 94.15,59.57 ZM 56.99 60.51 C54.50,63.52 51.00,61.01 51.00,56.22 C51.00,51.10 59.66,49.02 62.56,53.45 C64.79,56.85 63.62,60.37 60.52,59.59 C59.11,59.24 57.75,59.59 56.99,60.51 Z" fill="rgb(60,57,60)"/>
<path d="M 62.46 122.16 C54.05,127.12 32.05,123.61 22.58,115.81 C19.28,113.09 19.15,112.71 19.18,106.24 C19.19,102.53 19.57,99.05 20.01,98.50 C20.46,97.95 20.77,95.76 20.71,93.62 C20.60,89.92 22.63,86.96 26.07,85.81 C26.79,85.57 26.80,84.08 26.08,80.98 C21.77,62.27 30.69,41.30 47.57,30.43 C69.71,16.18 100.04,22.56 114.21,44.46 C120.37,53.98 122.37,62.10 121.76,75.13 C121.37,83.23 121.55,86.00 122.45,86.00 C123.11,86.00 124.69,87.11 125.96,88.46 C127.73,90.34 128.13,91.62 127.67,93.92 C127.34,95.57 127.48,97.18 128.00,97.50 C128.51,97.81 128.91,101.41 128.89,105.50 C128.85,112.64 128.72,113.04 125.52,115.85 C121.72,119.18 109.17,123.65 101.00,124.59 C95.13,125.26 88.31,123.90 84.29,121.27 C80.70,118.92 67.01,119.47 62.46,122.16 ZM 69.50 110.99 L 68.82 115.00 L 79.02 115.00 L 78.41 111.15 C77.71,106.79 79.44,102.60 84.21,97.13 C85.82,95.28 87.88,92.13 88.78,90.13 C91.34,84.44 93.95,82.00 97.47,82.00 C99.19,82.00 101.08,82.48 101.66,83.06 C102.41,83.81 103.81,83.39 106.41,81.63 C109.95,79.22 111.49,79.03 115.25,80.52 C115.27,80.53 115.30,80.54 115.32,80.55 C115.84,80.76 116.21,80.90 116.48,80.80 C117.18,80.52 117.19,78.54 117.29,71.50 C117.46,58.93 114.17,50.54 105.31,40.97 C84.51,18.50 47.06,24.64 33.79,52.69 C30.98,58.64 28.50,70.58 29.39,73.91 C29.62,74.78 30.10,76.78 30.45,78.34 C30.93,80.51 31.49,81.02 32.79,80.50 C36.51,79.03 38.06,79.23 41.59,81.63 C44.19,83.39 45.59,83.81 46.34,83.06 C48.01,81.39 53.53,81.82 55.23,83.75 C56.08,84.71 57.91,87.78 59.31,90.56 C60.70,93.35 62.58,96.24 63.48,96.98 C64.38,97.73 66.25,100.28 67.65,102.66 C69.71,106.18 70.05,107.73 69.50,110.99 ZM 43.00 119.38 C44.38,119.63 48.59,119.74 52.37,119.62 C58.73,119.44 59.45,119.18 62.12,116.19 C66.47,111.32 66.11,106.79 60.85,100.48 C58.57,97.74 55.86,93.61 54.83,91.29 C52.60,86.33 51.43,85.40 49.46,87.04 C47.37,88.77 47.66,93.38 50.00,95.50 C52.32,97.60 52.63,100.00 50.60,100.00 C49.82,100.00 47.85,97.64 46.21,94.75 C42.36,87.95 38.41,83.78 36.23,84.19 C32.82,84.84 33.82,88.40 39.08,94.30 C44.36,100.22 45.18,103.43 40.24,98.78 C32.74,91.73 25.00,88.78 25.00,92.97 C25.00,94.31 27.44,96.58 32.58,100.05 C36.75,102.87 39.91,105.42 39.60,105.73 C39.29,106.04 36.38,104.88 33.13,103.15 C26.59,99.66 24.49,99.29 23.66,101.45 C22.95,103.30 27.80,107.45 32.47,108.99 C34.41,109.63 36.00,110.58 36.00,111.10 C36.00,111.62 34.22,111.13 32.04,110.02 C29.86,108.91 27.16,108.00 26.04,108.00 C23.24,108.00 23.38,111.36 26.25,113.24 C28.76,114.89 39.15,118.69 43.00,119.38 ZM 90.28 119.36 C94.95,120.40 107.83,119.04 113.60,116.89 C121.29,114.03 124.00,112.20 124.00,109.88 C124.00,107.37 121.01,107.44 115.85,110.08 C113.50,111.27 111.95,111.65 112.18,110.96 C112.40,110.31 114.74,108.95 117.38,107.95 C122.45,106.02 125.11,103.45 124.28,101.29 C123.53,99.33 121.52,99.71 114.87,103.07 C111.53,104.75 108.58,105.91 108.32,105.65 C108.05,105.39 111.25,102.87 115.42,100.05 C120.56,96.58 123.00,94.31 123.00,92.97 C123.00,91.57 122.32,91.00 120.67,91.00 C118.19,91.00 110.54,95.64 107.52,98.98 C106.51,100.09 104.99,101.00 104.13,101.00 C103.16,101.00 104.32,99.22 107.23,96.25 C112.21,91.17 114.31,87.12 113.04,85.06 C111.56,82.66 108.13,85.06 104.10,91.30 C101.90,94.71 99.30,98.39 98.31,99.49 C96.62,101.37 96.50,101.38 96.17,99.65 C95.98,98.64 96.76,96.82 97.91,95.60 C100.33,93.02 100.65,88.78 98.54,87.04 C96.54,85.37 95.47,86.27 92.52,92.14 C91.12,94.93 88.41,99.04 86.49,101.28 C83.85,104.37 83.00,106.27 83.00,109.10 C83.00,113.37 86.68,118.56 90.28,119.36 ZM 68.81 81.55 C69.58,81.12 70.97,81.57 72.15,82.63 C74.05,84.35 74.22,84.36 75.13,82.73 C76.42,80.43 77.30,80.54 80.79,83.48 C82.60,85.00 83.34,85.55 84.04,85.30 C83.31,86.06 82.59,86.72 82.00,87.15 C78.61,89.64 71.28,90.39 67.50,88.64 C65.35,87.64 63.35,86.08 61.69,84.23 C63.34,85.95 63.56,85.83 65.43,84.15 C66.57,83.13 68.09,81.96 68.81,81.55 ZM 105.96 63.55 C103.61,66.39 99.64,64.57 100.16,60.89 C100.63,57.60 105.52,56.91 106.50,59.99 C106.87,61.16 106.63,62.74 105.96,63.55 ZM 46.96 63.55 C46.30,64.35 45.19,65.00 44.50,65.00 C42.65,65.00 40.78,62.36 41.18,60.30 C41.42,59.05 42.43,58.50 44.50,58.50 C47.81,58.50 49.04,61.04 46.96,63.55 ZM 65.15 73.59 C69.73,75.44 73.64,75.84 78.15,74.79 C73.51,76.15 70.40,75.83 65.15,73.59 ZM 58.75 79.98 C57.96,78.44 57.41,76.85 57.15,75.29 C57.44,76.75 58.00,78.42 58.75,79.98 ZM 88.90 77.55 C88.56,78.52 88.15,79.50 87.69,80.39 C88.14,79.47 88.55,78.50 88.90,77.55 ZM 89.39 71.25 C89.52,71.26 89.61,71.28 89.66,71.32 C89.68,71.34 89.69,71.36 89.71,71.39 C89.63,71.32 89.53,71.28 89.39,71.25 Z" fill="rgb(255,157,8)"/>
<path d="M 69.50 110.99 C70.05,107.73 69.71,106.18 67.65,102.66 C66.25,100.28 64.38,97.73 63.48,96.98 C62.58,96.24 60.70,93.35 59.31,90.56 C57.91,87.78 56.08,84.71 55.23,83.75 C53.53,81.82 48.01,81.39 46.34,83.06 C45.59,83.81 44.19,83.39 41.59,81.63 C38.06,79.23 36.51,79.03 32.79,80.50 C31.49,81.02 30.93,80.51 30.45,78.34 C30.10,76.78 29.62,74.78 29.39,73.91 C28.50,70.58 30.98,58.64 33.79,52.69 C47.06,24.64 84.51,18.50 105.31,40.97 C114.17,50.54 117.46,58.93 117.29,71.50 C117.19,78.54 117.18,80.52 116.48,80.80 C116.21,80.90 115.84,80.76 115.32,80.55 C115.30,80.54 115.27,80.53 115.25,80.52 C111.49,79.03 109.95,79.22 106.41,81.63 C103.81,83.39 102.41,83.81 101.66,83.06 C101.08,82.48 99.19,82.00 97.47,82.00 C93.95,82.00 91.34,84.44 88.78,90.13 C87.88,92.13 85.82,95.28 84.21,97.13 C79.44,102.60 77.71,106.79 78.41,111.15 L 79.02 115.00 L 68.82 115.00 ZM 43.00 119.38 C39.15,118.69 28.76,114.89 26.25,113.24 C23.38,111.36 23.24,108.00 26.04,108.00 C27.16,108.00 29.86,108.91 32.04,110.02 C34.22,111.13 36.00,111.62 36.00,111.10 C36.00,110.58 34.41,109.63 32.47,108.99 C27.80,107.45 22.95,103.30 23.66,101.45 C24.49,99.29 26.59,99.66 33.13,103.15 C36.38,104.88 39.29,106.04 39.60,105.73 C39.91,105.42 36.75,102.87 32.58,100.05 C27.44,96.58 25.00,94.31 25.00,92.97 C25.00,88.78 32.74,91.73 40.24,98.78 C45.18,103.43 44.36,100.22 39.08,94.30 C33.82,88.40 32.82,84.84 36.23,84.19 C38.41,83.78 42.36,87.95 46.21,94.75 C47.85,97.64 49.82,100.00 50.60,100.00 C52.63,100.00 52.32,97.60 50.00,95.50 C47.66,93.38 47.37,88.77 49.46,87.04 C51.43,85.40 52.60,86.33 54.83,91.29 C55.86,93.61 58.57,97.74 60.85,100.48 C66.11,106.79 66.47,111.32 62.12,116.19 C59.45,119.18 58.73,119.44 52.37,119.62 C48.59,119.74 44.38,119.63 43.00,119.38 ZM 90.28 119.36 C86.68,118.56 83.00,113.37 83.00,109.10 C83.00,106.27 83.85,104.37 86.49,101.28 C88.41,99.04 91.12,94.93 92.52,92.14 C95.47,86.27 96.54,85.37 98.54,87.04 C100.65,88.78 100.33,93.02 97.91,95.60 C96.76,96.82 95.98,98.64 96.17,99.65 C96.50,101.38 96.62,101.37 98.31,99.49 C99.30,98.39 101.90,94.71 104.10,91.30 C108.13,85.06 111.56,82.66 113.04,85.06 C114.31,87.12 112.21,91.17 107.23,96.25 C104.32,99.22 103.16,101.00 104.13,101.00 C104.99,101.00 106.51,100.09 107.52,98.98 C110.54,95.64 118.19,91.00 120.67,91.00 C122.32,91.00 123.00,91.57 123.00,92.97 C123.00,94.31 120.56,96.58 115.42,100.05 C111.25,102.87 108.05,105.39 108.32,105.65 C108.58,105.91 111.53,104.75 114.87,103.07 C121.52,99.71 123.53,99.33 124.28,101.29 C125.11,103.45 122.45,106.02 117.38,107.95 C114.74,108.95 112.40,110.31 112.18,110.96 C111.95,111.65 113.50,111.27 115.85,110.08 C121.01,107.44 124.00,107.37 124.00,109.88 C124.00,112.20 121.29,114.03 113.60,116.89 C107.83,119.04 94.95,120.40 90.28,119.36 ZM 65.15 73.59 C64.70,73.40 64.24,73.20 63.76,72.98 C61.42,71.91 58.94,71.03 58.25,71.02 C56.94,71.00 56.68,72.87 57.15,75.29 C57.41,76.85 57.96,78.44 58.75,79.98 C59.44,81.40 60.29,82.73 61.25,83.76 C61.40,83.93 61.55,84.08 61.69,84.23 C63.35,86.08 65.35,87.64 67.50,88.64 C71.28,90.39 78.61,89.64 82.00,87.15 C82.59,86.72 83.31,86.06 84.04,85.30 C84.42,85.16 84.80,84.78 85.33,84.19 C86.10,83.34 86.94,81.94 87.69,80.39 C88.15,79.50 88.56,78.52 88.90,77.55 L 88.90 77.55 C89.56,75.76 90.00,74.04 90.00,72.92 L 90.00 72.84 C90.00,72.16 90.00,71.68 89.76,71.43 C89.75,71.42 89.73,71.40 89.71,71.39 C89.69,71.36 89.68,71.34 89.66,71.32 C89.61,71.28 89.52,71.26 89.39,71.25 C88.50,71.10 86.30,71.90 80.87,73.88 L 80.56 73.99 C79.71,74.30 78.91,74.57 78.15,74.79 C73.64,75.84 69.73,75.44 65.15,73.59 ZM 94.15 59.57 C94.76,58.24 94.97,56.00 94.62,54.60 C92.87,47.63 83.00,49.83 83.00,57.19 C83.00,59.89 83.28,60.18 85.49,59.76 C86.91,59.49 88.47,59.87 89.12,60.64 C90.84,62.71 92.92,62.27 94.15,59.57 ZM 56.99 60.51 C57.75,59.59 59.11,59.24 60.52,59.59 C63.62,60.37 64.79,56.85 62.56,53.45 C59.66,49.02 51.00,51.10 51.00,56.22 C51.00,61.01 54.50,63.52 56.99,60.51 ZM 105.96 63.55 C106.63,62.74 106.87,61.16 106.50,59.99 C105.52,56.91 100.63,57.60 100.16,60.89 C99.64,64.57 103.61,66.39 105.96,63.55 ZM 46.96 63.55 C49.04,61.04 47.81,58.50 44.50,58.50 C42.43,58.50 41.42,59.05 41.18,60.30 C40.78,62.36 42.65,65.00 44.50,65.00 C45.19,65.00 46.30,64.35 46.96,63.55 Z" fill="rgb(254,206,31)"/>
<path d="M 0.00 74.00 L 0.00 0.00 L 74.00 0.00 L 148.00 0.00 L 148.00 74.00 L 148.00 148.00 L 74.00 148.00 L 0.00 148.00 L 0.00 74.00 ZM 62.46 122.16 C67.01,119.47 80.70,118.92 84.29,121.27 C88.31,123.90 95.13,125.26 101.00,124.59 C109.17,123.65 121.72,119.18 125.52,115.85 C128.72,113.04 128.85,112.64 128.89,105.50 C128.91,101.41 128.51,97.81 128.00,97.50 C127.48,97.18 127.34,95.57 127.67,93.92 C128.13,91.62 127.73,90.34 125.96,88.46 C124.69,87.11 123.11,86.00 122.45,86.00 C121.55,86.00 121.37,83.23 121.76,75.13 C122.37,62.10 120.37,53.98 114.21,44.46 C100.04,22.56 69.71,16.18 47.57,30.43 C30.69,41.30 21.77,62.27 26.08,80.98 C26.80,84.08 26.79,85.57 26.07,85.81 C22.63,86.96 20.60,89.92 20.71,93.62 C20.77,95.76 20.46,97.95 20.01,98.50 C19.57,99.05 19.19,102.53 19.18,106.24 C19.15,112.71 19.28,113.09 22.58,115.81 C32.05,123.61 54.05,127.12 62.46,122.16 Z" fill="rgb(255,254,254)"/>
</g>
</svg>