<svg xmlns="http://www.w3.org/2000/svg" width="670" height="672" viewBox="0 0 670 672">
<g>
<path d="M 412.65 338.51 C402.76,340.57 263.24,340.51 252.86,338.44 C241.20,336.12 228.63,329.80 219.37,321.62 C215.68,318.36 206.11,306.22 204.03,302.15 C198.18,290.74 195.40,274.94 196.94,261.82 C199.69,238.50 214.07,218.07 235.00,207.77 C240.23,205.20 247.20,202.60 250.50,201.99 C254.65,201.23 281.20,200.99 336.50,201.20 L 416.50 201.50 L 423.00 203.89 C435.22,208.39 448.07,217.94 455.45,228.00 C471.26,249.58 473.47,277.14 461.37,302.00 C456.17,312.69 441.62,327.15 431.00,332.20 C421.85,336.54 421.54,336.65 412.65,338.51 ZM 278.27 474.27 C268.84,477.60 256.34,477.25 248.83,473.45 C243.17,470.59 238.19,464.84 237.39,460.26 C237.07,458.39 250.11,454.57 251.16,456.23 C251.61,456.93 251.98,457.80 251.98,458.17 C251.99,458.54 253.56,459.80 255.46,460.97 C257.91,462.49 260.65,463.14 264.86,463.20 C272.42,463.30 277.43,460.48 280.10,454.60 C283.29,447.55 282.26,446.25 276.65,450.25 C272.13,453.48 259.64,453.45 252.54,450.20 C244.23,446.39 238.86,439.35 236.39,429.02 C234.63,421.68 234.68,417.02 236.58,409.69 C240.26,395.48 246.12,389.71 259.71,386.90 C267.26,385.34 275.50,386.87 280.01,390.66 L 283.00 393.18 L 283.00 390.59 C283.00,388.07 283.17,388.00 289.55,388.00 L 296.10 388.00 L 295.80 421.75 L 295.50 455.50 L 292.69 461.23 C289.42,467.89 284.97,471.91 278.27,474.27 ZM 516.78 464.75 L 516.50 479.50 L 509.46 479.79 C505.58,479.95 502.09,479.76 501.71,479.37 C501.32,478.98 501.00,458.27 501.00,433.33 L 501.00 388.00 L 508.11 388.00 C514.01,388.00 515.12,388.25 514.64,389.50 L 514.62 389.54 C514.38,390.18 514.21,390.61 514.35,390.77 C514.62,391.08 516.00,390.44 520.02,388.57 L 520.15 388.51 C532.22,382.89 547.40,386.66 555.01,397.17 C558.59,402.11 562.00,412.92 562.00,419.31 C562.00,425.46 559.61,434.28 556.52,439.56 C553.86,444.09 547.44,449.78 542.70,451.81 C538.77,453.48 526.66,453.30 522.35,451.50 C520.37,450.67 518.37,450.00 517.90,450.00 C517.44,450.00 516.93,456.64 516.78,464.75 ZM 294.00 315.80 C294.00,316.81 295.16,316.51 298.31,314.66 C301.80,312.62 303.45,312.25 306.96,312.72 C310.10,313.14 311.11,312.99 310.59,312.15 C310.20,311.52 308.39,311.00 306.56,311.00 C302.04,311.00 300.31,308.83 302.41,305.82 C303.29,304.57 304.00,302.31 304.00,300.78 C304.00,299.25 304.46,298.00 305.03,298.00 C307.20,298.00 316.32,303.26 318.44,305.73 C320.32,307.91 321.62,308.35 326.79,308.57 L 332.91 308.82 L 328.41 303.16 C325.93,300.05 322.19,293.62 320.09,288.87 C313.83,274.68 310.68,270.09 298.31,257.11 C290.05,248.43 285.39,242.62 282.81,237.74 C278.20,229.02 275.84,226.49 270.36,224.39 C264.28,222.07 258.20,223.00 255.29,226.69 C254.07,228.23 251.94,230.90 250.57,232.60 C247.04,236.97 245.76,240.91 246.55,244.99 C247.19,248.32 247.27,248.38 248.12,246.15 C248.79,244.39 249.46,243.99 250.76,244.56 C251.72,244.98 254.17,245.52 256.21,245.76 C258.25,246.00 260.33,246.72 260.82,247.35 C262.28,249.23 263.99,254.94 265.96,264.50 C268.46,276.61 270.05,279.96 276.51,286.73 C280.98,291.42 282.00,293.13 282.00,295.93 C282.00,297.81 282.54,300.86 283.20,302.69 C284.22,305.51 284.16,306.27 282.79,307.63 C281.91,308.52 279.90,309.15 278.34,309.02 C272.06,308.52 267.73,308.87 266.64,309.97 C265.78,310.83 265.96,310.94 267.37,310.40 C268.60,309.94 269.55,310.22 270.12,311.24 C271.00,312.82 272.15,312.83 281.81,311.41 C285.24,310.91 286.38,311.13 287.39,312.52 C288.42,313.93 289.06,314.04 290.76,313.13 C293.71,311.55 296.80,311.60 295.20,313.20 C294.54,313.86 294.00,315.03 294.00,315.80 ZM 363.05 449.77 C355.49,453.15 341.76,453.87 334.49,451.27 C316.63,444.86 308.22,432.89 307.24,412.49 C306.18,390.46 313.17,376.54 329.00,369.17 C335.76,366.03 337.39,365.68 345.50,365.62 C350.45,365.58 356.84,366.14 359.70,366.86 C369.37,369.30 377.54,377.09 381.65,387.77 C382.55,390.12 383.11,392.23 382.89,392.45 C382.66,392.67 379.42,393.26 375.68,393.76 L 368.87 394.68 L 366.51 390.01 C362.05,381.22 353.30,377.30 342.10,379.07 C328.53,381.22 321.93,391.00 321.83,409.13 C321.79,417.92 322.06,419.33 324.93,425.36 C328.49,432.82 332.52,436.45 339.61,438.58 C351.92,442.29 362.40,437.77 367.65,426.51 C371.44,418.37 371.21,418.00 362.50,418.00 L 355.00 418.00 L 355.00 407.00 L 385.00 407.00 L 385.00 414.26 C385.00,430.08 376.57,443.72 363.05,449.77 ZM 472.28 451.65 C468.73,453.14 456.16,453.33 451.60,451.96 C445.37,450.10 439.00,441.20 439.00,434.36 C439.00,429.57 442.34,422.68 445.80,420.34 C450.40,417.22 459.04,414.05 465.92,412.95 C476.55,411.25 476.84,411.14 477.22,408.75 C477.76,405.39 474.41,401.20 470.16,399.93 C462.75,397.71 454.43,402.12 451.97,409.59 C451.35,411.46 450.65,413.00 450.41,413.00 C450.17,413.00 447.49,411.36 444.47,409.35 C438.27,405.23 438.16,404.44 442.87,397.51 C447.94,390.06 455.70,386.53 467.00,386.57 C479.11,386.60 486.38,391.04 489.95,400.60 C491.79,405.52 492.00,408.34 492.00,428.54 L 492.00 451.00 L 486.00 451.00 C480.67,451.00 480.00,450.78 480.00,449.00 C480.00,446.57 478.72,446.43 476.87,448.65 C476.12,449.57 474.05,450.92 472.28,451.65 ZM 142.98 451.39 C138.63,453.13 126.59,453.45 121.60,451.96 C117.84,450.83 113.33,446.50 110.80,441.57 C108.27,436.66 108.73,429.80 111.92,424.62 C114.73,420.09 125.59,414.64 135.00,413.04 C146.85,411.03 146.75,411.06 147.29,408.26 C147.66,406.32 147.08,404.93 145.05,402.89 C141.29,399.13 136.64,398.43 130.56,400.68 C126.61,402.15 125.23,403.32 123.41,406.75 C122.18,409.09 121.00,411.51 120.79,412.14 C120.55,412.84 118.15,411.79 114.70,409.50 C111.57,407.42 109.00,405.61 109.00,405.48 C109.00,405.35 109.69,403.60 110.52,401.60 C114.51,392.06 127.50,385.14 139.13,386.36 C149.52,387.44 155.25,390.89 159.35,398.50 C161.35,402.22 161.52,404.18 161.83,426.75 L 162.16 451.00 L 156.08 451.00 C151.34,451.00 150.00,450.67 150.00,449.50 C150.00,448.67 149.32,448.00 148.50,448.00 C147.68,448.00 147.00,448.40 147.00,448.89 C147.00,449.38 145.19,450.51 142.98,451.39 ZM 584.16 430.75 L 583.83 452.00 L 577.08 452.00 C573.37,452.00 570.03,451.70 569.67,451.33 C569.30,450.97 569.00,431.84 569.00,408.83 L 569.00 367.00 L 582.00 367.00 L 582.00 380.00 C582.00,387.15 582.26,393.00 582.57,393.00 C582.88,393.00 584.57,391.94 586.32,390.64 C590.84,387.28 595.36,386.00 602.68,386.00 C613.85,386.00 621.01,390.73 625.19,400.89 C627.37,406.18 627.50,407.78 627.50,429.00 L 627.50 451.50 L 613.50 451.50 L 612.86 431.44 C612.30,413.71 611.98,410.88 610.11,407.21 C606.62,400.38 599.08,398.09 591.68,401.61 C585.11,404.75 584.54,406.96 584.16,430.75 ZM 186.02 431.75 L 186.00 451.00 L 172.00 451.00 L 172.00 388.00 L 179.00 388.00 C185.50,388.00 186.00,388.15 186.00,390.15 C186.00,392.12 186.15,392.18 187.75,390.78 C191.12,387.85 199.86,385.71 205.70,386.39 C215.83,387.59 222.15,391.61 226.27,399.50 C228.17,403.14 228.40,405.61 228.80,427.25 L 229.25 451.00 L 215.00 451.00 L 215.00 430.25 C215.00,406.76 214.33,403.94 208.00,400.72 C201.44,397.37 191.14,401.27 187.95,408.31 C186.29,411.96 186.04,414.99 186.02,431.75 ZM 105.80 444.75 L 105.50 451.50 L 76.93 451.77 C61.22,451.91 48.06,451.72 47.68,451.35 C47.31,450.97 47.00,431.62 47.00,408.33 L 47.00 366.00 L 61.00 366.00 L 61.00 438.00 L 106.09 438.00 ZM 411.19 432.75 L 410.88 451.00 L 397.00 451.00 L 397.00 389.00 L 410.00 389.00 L 410.03 393.25 C410.05,396.59 410.28,397.13 411.07,395.77 C413.10,392.28 420.54,388.91 426.67,388.70 L 432.50 388.50 L 432.80 394.75 L 433.10 401.00 L 428.86 401.00 C422.15,401.00 416.53,404.29 413.81,409.81 C411.70,414.10 411.47,416.06 411.19,432.75 ZM 260.50 438.85 C264.30,440.24 271.27,439.53 274.49,437.41 C283.20,431.70 284.54,413.24 276.87,404.50 C273.61,400.79 267.47,398.46 263.70,399.51 C256.79,401.42 253.99,403.39 251.79,407.89 C245.92,419.92 250.18,435.06 260.50,438.85 ZM 523.29 438.37 C527.98,440.68 534.07,440.43 538.02,437.75 C542.95,434.41 545.22,429.62 545.77,421.36 C546.18,415.23 545.89,413.45 543.72,408.70 C540.77,402.25 537.68,399.89 531.77,399.55 C520.05,398.87 514.19,406.92 515.22,422.25 C515.80,430.75 518.41,435.96 523.29,438.37 ZM 370.27 284.25 C371.81,286.63 372.30,286.83 373.99,285.77 C374.68,285.34 375.17,285.12 375.34,284.76 C375.66,284.09 374.90,282.92 372.35,278.99 C372.05,278.52 371.71,278.01 371.36,277.45 C369.95,275.29 369.91,274.55 371.02,272.45 C372.27,270.13 372.82,270.00 381.17,270.00 C389.92,270.00 390.00,269.98 390.00,267.50 C390.00,265.02 389.92,265.00 381.16,265.00 C372.66,265.00 372.28,264.90 371.16,262.45 C369.56,258.95 369.60,258.77 373.06,254.42 C375.92,250.83 376.01,250.48 374.37,249.28 C371.79,247.39 371.35,247.61 368.88,252.00 C367.64,254.20 366.38,256.04 366.07,256.09 C365.75,256.14 363.55,256.33 361.16,256.50 C356.36,256.85 352.90,259.42 350.98,264.04 C348.42,270.23 354.60,278.00 362.09,278.00 C365.60,278.00 366.86,278.96 370.27,284.25 ZM 402.22 276.44 C405.92,279.03 412.19,278.46 415.25,275.25 C419.27,271.04 420.26,267.55 418.58,263.53 C416.66,258.94 412.62,256.47 407.35,256.68 C404.16,256.80 402.94,256.42 402.51,255.17 C402.20,254.25 400.84,252.16 399.49,250.51 C397.32,247.86 396.88,247.69 395.55,249.02 C394.23,250.34 394.41,251.04 397.12,255.21 C400.00,259.64 400.09,260.04 398.59,262.18 C395.70,266.30 397.43,273.09 402.22,276.44 ZM 379.11 243.60 C382.01,245.21 384.99,245.33 388.51,244.00 C392.84,242.35 394.33,240.11 394.79,234.55 C395.17,229.94 394.91,229.00 392.64,226.73 C389.41,223.50 386.75,222.64 382.47,223.44 C373.23,225.17 370.92,239.06 379.11,243.60 ZM 381.21 310.80 C389.82,313.09 397.16,305.94 394.85,297.50 C391.78,286.22 373.99,288.07 374.00,299.67 C374.01,304.91 377.12,309.71 381.21,310.80 ZM 455.63 438.93 C460.34,442.63 470.92,441.17 475.34,436.21 C477.78,433.47 478.33,422.79 476.00,423.44 C475.17,423.67 472.48,424.17 470.01,424.55 C455.77,426.78 448.91,433.64 455.63,438.93 ZM 126.76 439.43 C131.99,442.27 140.16,441.06 144.75,436.76 C146.57,435.05 147.00,433.57 147.00,428.95 L 147.00 423.24 L 139.25 424.70 C126.59,427.08 122.08,430.18 123.43,435.57 C123.76,436.88 125.26,438.62 126.76,439.43 Z" fill="rgb(27,57,56)"/>
<path d="M 294.00 315.80 C294.00,315.03 294.54,313.86 295.20,313.20 C296.80,311.60 293.71,311.55 290.76,313.13 C289.06,314.04 288.42,313.93 287.39,312.52 C286.38,311.13 285.24,310.91 281.81,311.41 C272.15,312.83 271.00,312.82 270.12,311.24 C269.55,310.22 268.60,309.94 267.37,310.40 C265.96,310.94 265.78,310.83 266.64,309.97 C267.73,308.87 272.06,308.52 278.34,309.02 C279.90,309.15 281.91,308.52 282.79,307.63 C284.16,306.27 284.22,305.51 283.20,302.69 C282.54,300.86 282.00,297.81 282.00,295.93 C282.00,293.13 280.98,291.42 276.51,286.73 C270.05,279.96 268.46,276.61 265.96,264.50 C263.99,254.94 262.28,249.23 260.82,247.35 C260.33,246.72 258.25,246.00 256.21,245.76 C254.17,245.52 251.72,244.98 250.76,244.56 C249.46,243.99 248.79,244.39 248.12,246.15 C247.27,248.38 247.19,248.32 246.55,244.99 C245.76,240.91 247.04,236.97 250.57,232.60 C251.94,230.90 254.07,228.23 255.29,226.69 C258.20,223.00 264.28,222.07 270.36,224.39 C275.84,226.49 278.20,229.02 282.81,237.74 C285.39,242.62 290.05,248.43 298.31,257.11 C310.68,270.09 313.83,274.68 320.09,288.87 C322.19,293.62 325.93,300.05 328.41,303.16 L 332.91 308.82 L 326.79 308.57 C321.62,308.35 320.32,307.91 318.44,305.73 C316.32,303.26 307.20,298.00 305.03,298.00 C304.46,298.00 304.00,299.25 304.00,300.78 C304.00,302.31 303.29,304.57 302.41,305.82 C300.31,308.83 302.04,311.00 306.56,311.00 C308.39,311.00 310.20,311.52 310.59,312.15 C311.11,312.99 310.10,313.14 306.96,312.72 C303.45,312.25 301.80,312.62 298.31,314.66 C295.16,316.51 294.00,316.81 294.00,315.80 ZM 370.27 284.25 C366.86,278.96 365.60,278.00 362.09,278.00 C354.60,278.00 348.42,270.23 350.98,264.04 C352.90,259.42 356.36,256.85 361.16,256.50 C363.55,256.33 365.75,256.14 366.07,256.09 C366.38,256.04 367.64,254.20 368.88,252.00 C371.35,247.61 371.79,247.39 374.37,249.28 C376.01,250.48 375.92,250.83 373.06,254.42 C369.60,258.77 369.56,258.95 371.16,262.45 C372.28,264.90 372.66,265.00 381.16,265.00 C389.92,265.00 390.00,265.02 390.00,267.50 C390.00,269.98 389.92,270.00 381.17,270.00 C372.82,270.00 372.27,270.13 371.02,272.45 C369.91,274.55 369.95,275.29 371.36,277.45 C371.71,278.01 372.05,278.52 372.35,278.99 C374.90,282.92 375.66,284.09 375.34,284.76 C375.17,285.12 374.68,285.34 373.99,285.77 C372.30,286.83 371.81,286.63 370.27,284.25 ZM 402.22 276.44 C397.43,273.09 395.70,266.30 398.59,262.18 C400.09,260.04 400.00,259.64 397.12,255.21 C394.41,251.04 394.23,250.34 395.55,249.02 C396.88,247.69 397.32,247.86 399.49,250.51 C400.84,252.16 402.20,254.25 402.51,255.17 C402.94,256.42 404.16,256.80 407.35,256.68 C412.62,256.47 416.66,258.94 418.58,263.53 C420.26,267.55 419.27,271.04 415.25,275.25 C412.19,278.46 405.92,279.03 402.22,276.44 ZM 379.11 243.60 C370.92,239.06 373.23,225.17 382.47,223.44 C386.75,222.64 389.41,223.50 392.64,226.73 C394.91,229.00 395.17,229.94 394.79,234.55 C394.33,240.11 392.84,242.35 388.51,244.00 C384.99,245.33 382.01,245.21 379.11,243.60 ZM 381.21 310.80 C377.12,309.71 374.01,304.91 374.00,299.67 C373.99,288.07 391.78,286.22 394.85,297.50 C397.16,305.94 389.82,313.09 381.21,310.80 Z" fill="rgb(38,170,79)"/>
<path d="M 0.00 336.00 L 0.00 0.00 L 335.00 0.00 L 670.00 0.00 L 670.00 336.00 L 670.00 672.00 L 335.00 672.00 L 0.00 672.00 L 0.00 336.00 ZM 516.78 464.75 C516.93,456.64 517.44,450.00 517.90,450.00 C518.37,450.00 520.37,450.67 522.35,451.50 C526.66,453.30 538.77,453.48 542.70,451.81 C547.44,449.78 553.86,444.09 556.52,439.56 C559.61,434.28 562.00,425.46 562.00,419.31 C562.00,412.92 558.59,402.11 555.01,397.17 C547.40,386.66 532.22,382.89 520.15,388.51 C513.86,391.44 513.90,391.43 514.64,389.50 C515.12,388.25 514.01,388.00 508.11,388.00 L 501.00 388.00 L 501.00 433.33 C501.00,458.27 501.32,478.98 501.71,479.37 C502.09,479.76 505.58,479.95 509.46,479.79 L 516.50 479.50 L 516.78 464.75 ZM 278.27 474.27 C284.97,471.91 289.42,467.89 292.69,461.23 L 295.50 455.50 L 295.80 421.75 L 296.10 388.00 L 289.55 388.00 C283.17,388.00 283.00,388.07 283.00,390.59 L 283.00 393.18 L 280.01 390.66 C275.50,386.87 267.26,385.34 259.71,386.90 C246.12,389.71 240.26,395.48 236.58,409.69 C234.68,417.02 234.63,421.68 236.39,429.02 C238.86,439.35 244.23,446.39 252.54,450.20 C259.64,453.45 272.13,453.48 276.65,450.25 C282.26,446.25 283.29,447.55 280.10,454.60 C277.43,460.48 272.42,463.30 264.86,463.20 C260.65,463.14 257.91,462.49 255.46,460.97 C253.56,459.80 251.99,458.54 251.98,458.17 C251.98,457.80 251.61,456.93 251.16,456.23 C250.11,454.57 237.07,458.39 237.39,460.26 C238.19,464.84 243.17,470.59 248.83,473.45 C256.34,477.25 268.84,477.60 278.27,474.27 ZM 142.98 451.39 C145.19,450.51 147.00,449.38 147.00,448.89 C147.00,448.40 147.68,448.00 148.50,448.00 C149.32,448.00 150.00,448.67 150.00,449.50 C150.00,450.67 151.34,451.00 156.08,451.00 L 162.16 451.00 L 161.83 426.75 C161.52,404.18 161.35,402.22 159.35,398.50 C155.25,390.89 149.52,387.44 139.13,386.36 C127.50,385.14 114.51,392.06 110.52,401.60 C109.69,403.60 109.00,405.35 109.00,405.48 C109.00,405.61 111.57,407.42 114.70,409.50 C118.15,411.79 120.55,412.84 120.79,412.14 C121.00,411.51 122.18,409.09 123.41,406.75 C125.23,403.32 126.61,402.15 130.56,400.68 C136.64,398.43 141.29,399.13 145.05,402.89 C147.08,404.93 147.66,406.32 147.29,408.26 C146.75,411.06 146.85,411.03 135.00,413.04 C125.59,414.64 114.73,420.09 111.92,424.62 C108.73,429.80 108.27,436.66 110.80,441.57 C113.33,446.50 117.84,450.83 121.60,451.96 C126.59,453.45 138.63,453.13 142.98,451.39 ZM 363.05 449.77 C376.57,443.72 385.00,430.08 385.00,414.26 L 385.00 407.00 L 370.00 407.00 L 355.00 407.00 L 355.00 412.50 L 355.00 418.00 L 362.50 418.00 C371.21,418.00 371.44,418.37 367.65,426.51 C362.40,437.77 351.92,442.29 339.61,438.58 C332.52,436.45 328.49,432.82 324.93,425.36 C322.06,419.33 321.79,417.92 321.83,409.13 C321.93,391.00 328.53,381.22 342.10,379.07 C353.30,377.30 362.05,381.22 366.51,390.01 L 368.87 394.68 L 375.68 393.76 C379.42,393.26 382.66,392.67 382.89,392.45 C383.11,392.23 382.55,390.12 381.65,387.77 C377.54,377.09 369.37,369.30 359.70,366.86 C356.84,366.14 350.45,365.58 345.50,365.62 C337.39,365.68 335.76,366.03 329.00,369.17 C313.17,376.54 306.18,390.46 307.24,412.49 C308.22,432.89 316.63,444.86 334.49,451.27 C341.76,453.87 355.49,453.15 363.05,449.77 ZM 472.28 451.65 C474.05,450.92 476.12,449.57 476.87,448.65 C478.72,446.43 480.00,446.57 480.00,449.00 C480.00,450.78 480.67,451.00 486.00,451.00 L 492.00 451.00 L 492.00 428.54 C492.00,408.34 491.79,405.52 489.95,400.60 C486.38,391.04 479.11,386.60 467.00,386.57 C455.70,386.53 447.94,390.06 442.87,397.51 C438.16,404.44 438.27,405.23 444.47,409.35 C447.49,411.36 450.17,413.00 450.41,413.00 C450.65,413.00 451.35,411.46 451.97,409.59 C454.43,402.12 462.75,397.71 470.16,399.93 C474.41,401.20 477.76,405.39 477.22,408.75 C476.84,411.14 476.55,411.25 465.92,412.95 C459.04,414.05 450.40,417.22 445.80,420.34 C442.34,422.68 439.00,429.57 439.00,434.36 C439.00,441.20 445.37,450.10 451.60,451.96 C456.16,453.33 468.73,453.14 472.28,451.65 ZM 105.80 444.75 L 106.09 438.00 L 83.55 438.00 L 61.00 438.00 L 61.00 402.00 L 61.00 366.00 L 54.00 366.00 L 47.00 366.00 L 47.00 408.33 C47.00,431.62 47.31,450.97 47.68,451.35 C48.06,451.72 61.22,451.91 76.93,451.77 L 105.50 451.50 L 105.80 444.75 ZM 584.16 430.75 C584.54,406.96 585.11,404.75 591.68,401.61 C599.08,398.09 606.62,400.38 610.11,407.21 C611.98,410.88 612.30,413.71 612.86,431.44 L 613.50 451.50 L 620.50 451.50 L 627.50 451.50 L 627.50 429.00 C627.50,407.78 627.37,406.18 625.19,400.89 C621.01,390.73 613.85,386.00 602.68,386.00 C595.36,386.00 590.84,387.28 586.32,390.64 C584.57,391.94 582.88,393.00 582.57,393.00 C582.26,393.00 582.00,387.15 582.00,380.00 L 582.00 367.00 L 575.50 367.00 L 569.00 367.00 L 569.00 408.83 C569.00,431.84 569.30,450.97 569.67,451.33 C570.03,451.70 573.37,452.00 577.08,452.00 L 583.83 452.00 L 584.16 430.75 ZM 186.02 431.75 C186.04,414.99 186.29,411.96 187.95,408.31 C191.14,401.27 201.44,397.37 208.00,400.72 C214.33,403.94 215.00,406.76 215.00,430.25 L 215.00 451.00 L 222.12 451.00 L 229.25 451.00 L 228.80 427.25 C228.40,405.61 228.17,403.14 226.27,399.50 C222.15,391.61 215.83,387.59 205.70,386.39 C199.86,385.71 191.12,387.85 187.75,390.78 C186.15,392.18 186.00,392.12 186.00,390.15 C186.00,388.15 185.50,388.00 179.00,388.00 L 172.00 388.00 L 172.00 419.50 L 172.00 451.00 L 179.00 451.00 L 186.00 451.00 L 186.02 431.75 ZM 411.19 432.75 C411.47,416.06 411.70,414.10 413.81,409.81 C416.53,404.29 422.15,401.00 428.86,401.00 L 433.10 401.00 L 432.80 394.75 L 432.50 388.50 L 426.67 388.70 C420.54,388.91 413.10,392.28 411.07,395.77 C410.28,397.13 410.05,396.59 410.03,393.25 L 410.00 389.00 L 403.50 389.00 L 397.00 389.00 L 397.00 420.00 L 397.00 451.00 L 403.94 451.00 L 410.88 451.00 L 411.19 432.75 ZM 412.65 338.51 C421.54,336.65 421.85,336.54 431.00,332.20 C441.62,327.15 456.17,312.69 461.37,302.00 C473.47,277.14 471.26,249.58 455.45,228.00 C448.07,217.94 435.22,208.39 423.00,203.89 L 416.50 201.50 L 336.50 201.20 C281.20,200.99 254.65,201.23 250.50,201.99 C247.20,202.60 240.23,205.20 235.00,207.77 C214.07,218.07 199.69,238.50 196.94,261.82 C195.40,274.94 198.18,290.74 204.03,302.15 C206.11,306.22 215.68,318.36 219.37,321.62 C228.63,329.80 241.20,336.12 252.86,338.44 C263.24,340.51 402.76,340.57 412.65,338.51 ZM 523.29 438.37 C518.41,435.96 515.80,430.75 515.22,422.25 C514.19,406.92 520.05,398.87 531.77,399.55 C537.68,399.89 540.77,402.25 543.72,408.70 C545.89,413.45 546.18,415.23 545.77,421.36 C545.22,429.62 542.95,434.41 538.02,437.75 C534.07,440.43 527.98,440.68 523.29,438.37 ZM 260.50 438.85 C250.18,435.06 245.92,419.92 251.79,407.89 C253.99,403.39 256.79,401.42 263.70,399.51 C267.47,398.46 273.61,400.79 276.87,404.50 C284.54,413.24 283.20,431.70 274.49,437.41 C271.27,439.53 264.30,440.24 260.50,438.85 ZM 126.76 439.43 C125.26,438.62 123.76,436.88 123.43,435.57 C122.08,430.18 126.59,427.08 139.25,424.70 L 147.00 423.24 L 147.00 428.95 C147.00,433.57 146.57,435.05 144.75,436.76 C140.16,441.06 131.99,442.27 126.76,439.43 ZM 455.63 438.93 C448.91,433.64 455.77,426.78 470.01,424.55 C472.48,424.17 475.17,423.67 476.00,423.44 C478.33,422.79 477.78,433.47 475.34,436.21 C470.92,441.17 460.34,442.63 455.63,438.93 Z" fill="rgb(254,254,254)"/>
</g>
</svg>