<svg xmlns="http://www.w3.org/2000/svg" width="225" height="225" viewBox="0 0 225 225">
<g>
<path d="M 0.15 54.25 C0.23,84.09 0.48,107.15 0.70,105.50 C3.63,83.36 20.69,64.22 42.55,58.53 C51.31,56.25 174.69,56.25 183.46,58.53 C202.24,63.42 218.33,79.72 223.42,99.00 C224.74,104.01 224.87,99.85 224.93,52.25 L 225.00 0.00 L 225.00 225.00 L 224.93 172.75 C224.87,125.15 224.74,120.99 223.42,126.00 C218.57,144.39 205.53,158.37 186.24,165.88 L 179.50 168.50 L 113.50 168.50 C109.73,168.50 106.17,168.50 102.80,168.50 C55.12,168.52 45.82,168.52 37.84,165.28 C35.35,164.26 32.98,162.93 29.61,161.18 C15.96,154.10 4.85,139.38 1.55,124.00 C0.29,118.13 0.15,122.72 0.08,171.25 L 0.00 225.00 L 0.00 0.00 ZM 133.87 142.99 C138.69,145.54 146.93,145.59 151.79,143.10 C155.69,141.10 169.00,127.97 169.00,126.12 C169.00,125.53 170.69,124.17 172.75,123.10 C177.25,120.76 188.15,109.77 190.40,105.30 C193.97,98.17 191.23,87.56 184.47,82.41 C179.38,78.53 169.33,77.77 163.36,80.82 C159.45,82.81 146.00,96.12 146.00,98.00 C146.00,98.53 144.31,99.82 142.25,100.88 C136.51,103.82 125.41,115.85 124.11,120.55 C122.75,125.43 122.75,126.55 124.04,131.22 C125.35,135.91 129.19,140.52 133.87,142.99 ZM 79.80 149.80 C78.07,151.53 80.79,151.33 84.00,149.50 C85.38,148.71 88.41,148.05 90.75,148.04 C93.09,148.02 95.00,147.55 95.00,147.00 C95.00,146.45 93.71,146.00 92.12,146.00 C88.67,146.00 86.71,144.07 88.04,141.97 C88.55,141.16 88.98,139.49 88.98,138.25 C88.99,137.01 89.42,136.00 89.93,136.00 C92.27,136.00 96.77,138.38 99.61,141.13 C102.06,143.48 103.78,144.20 107.61,144.43 C115.07,144.89 115.17,144.30 108.67,138.22 C107.66,137.27 104.90,132.38 102.53,127.34 C96.86,115.29 93.43,110.46 83.43,100.45 C78.85,95.87 73.98,89.91 72.60,87.21 C71.23,84.50 68.93,80.88 67.48,79.16 C62.56,73.31 51.90,72.44 48.26,77.58 C47.29,78.95 45.26,81.69 43.75,83.67 C42.03,85.92 41.00,88.51 41.00,90.58 C41.00,94.14 42.43,95.92 43.36,93.51 C43.81,92.33 44.49,92.24 46.64,93.05 C48.13,93.62 49.91,93.87 50.60,93.60 C52.74,92.78 53.90,95.30 57.00,107.50 C60.17,119.96 60.29,120.22 66.07,126.50 C69.56,130.29 70.96,134.13 71.36,141.00 C71.49,143.41 71.29,143.50 65.30,143.50 C61.68,143.50 58.58,144.02 57.85,144.75 C56.85,145.75 57.04,146.00 58.80,146.00 C60.01,146.00 61.00,146.50 61.00,147.11 C61.00,147.81 62.20,148.01 64.25,147.66 C66.04,147.35 69.07,146.82 71.00,146.48 C73.31,146.07 74.04,146.18 73.16,146.79 C71.26,148.12 76.91,149.12 79.24,147.87 C81.25,146.80 81.60,148.00 79.80,149.80 ZM 147.80 135.60 C144.09,137.52 141.08,137.35 137.23,135.00 C130.05,130.62 130.41,123.18 138.18,115.31 C141.07,112.39 143.69,110.00 144.02,110.00 C144.34,110.00 145.58,112.01 146.77,114.47 C149.53,120.15 156.36,125.08 158.48,122.92 C159.25,122.14 160.16,120.30 160.52,118.84 C161.05,116.69 160.76,116.06 159.02,115.50 C156.43,114.68 153.01,109.39 153.00,106.20 C153.00,102.74 155.32,99.00 160.67,93.87 C166.52,88.25 168.82,87.00 173.30,87.00 C177.66,87.00 181.52,90.01 183.02,94.57 C184.60,99.35 183.27,102.31 176.58,108.92 L 171.26 114.17 L 169.03 109.56 C166.56,104.45 161.07,99.65 158.32,100.18 C157.34,100.37 156.12,101.71 155.61,103.17 C154.79,105.50 155.12,106.25 158.34,109.28 C161.55,112.31 162.00,113.32 162.00,117.44 C162.00,121.81 161.58,122.59 156.25,128.18 C153.09,131.49 149.28,134.83 147.80,135.60 ZM 84.00 143.51 C84.00,144.61 80.33,145.67 79.00,144.95 C78.18,144.51 76.60,143.82 75.50,143.42 C73.79,142.80 73.75,142.63 75.17,142.29 C76.09,142.06 77.33,140.50 77.92,138.80 L 79.00 135.71 L 81.50 139.40 C82.87,141.43 84.00,143.28 84.00,143.51 Z" fill="rgb(27,59,59)"/>
<path d="M 5.92 88.55 C6.80,86.56 7.67,84.79 8.36,83.62 C11.02,79.11 14.96,74.69 19.60,70.81 C13.94,75.78 9.26,81.84 5.92,88.55 ZM 41.87 166.58 C46.42,167.70 52.66,168.17 64.90,168.37 C48.16,168.18 45.21,167.72 42.00,166.63 C41.96,166.61 41.92,166.60 41.87,166.58 ZM 0.73 122.28 C0.93,121.52 1.20,122.34 1.55,124.00 C2.11,126.59 2.88,129.15 3.86,131.67 C4.10,132.29 4.35,132.91 4.61,133.52 C7.80,140.95 12.67,147.85 18.57,153.32 C12.57,147.89 7.92,141.30 4.61,133.52 C4.35,132.91 4.09,132.29 3.86,131.67 C3.34,130.34 2.86,128.98 2.42,127.59 ZM 0.55 103.20 L 2.06 98.70 C1.46,100.93 1.00,103.20 0.70,105.50 C0.65,105.86 0.60,105.03 0.55,103.20 ZM 0.08 171.25 C0.09,166.36 0.09,161.91 0.10,157.88 L 0.08 172.75 L 0.00 225.00 ZM 29.58 161.17 L 29.61 161.18 C30.73,161.76 31.74,162.30 32.69,162.79 C31.63,162.27 30.59,161.73 29.58,161.17 Z" fill="rgb(143,153,153)"/>
<path d="M 0.08 172.75 L 0.16 120.50 L 2.42 127.59 C8.51,146.77 21.61,159.68 42.00,166.63 C47.16,168.38 51.61,168.50 113.50,168.50 L 179.50 168.50 L 186.24 165.88 C205.53,158.37 218.57,144.39 223.42,126.00 C224.74,120.99 224.87,125.15 224.93,172.75 L 225.00 225.00 L 112.50 225.00 L 0.00 225.00 L 0.08 172.75 ZM 79.80 149.80 C81.60,148.00 81.25,146.80 79.24,147.87 C76.91,149.12 71.26,148.12 73.16,146.79 C74.04,146.18 73.31,146.07 71.00,146.48 C69.07,146.82 66.04,147.35 64.25,147.66 C62.20,148.01 61.00,147.81 61.00,147.11 C61.00,146.50 60.01,146.00 58.80,146.00 C57.04,146.00 56.85,145.75 57.85,144.75 C58.58,144.02 61.68,143.50 65.30,143.50 C71.29,143.50 71.49,143.41 71.36,141.00 C70.96,134.13 69.56,130.29 66.07,126.50 C60.29,120.22 60.17,119.96 57.00,107.50 C53.90,95.30 52.74,92.78 50.60,93.60 C49.91,93.87 48.13,93.62 46.64,93.05 C44.49,92.24 43.81,92.33 43.36,93.51 C42.43,95.92 41.00,94.14 41.00,90.58 C41.00,88.51 42.03,85.92 43.75,83.67 C45.26,81.69 47.29,78.95 48.26,77.58 C51.90,72.44 62.56,73.31 67.48,79.16 C68.93,80.88 71.23,84.50 72.60,87.21 C73.98,89.91 78.85,95.87 83.43,100.45 C93.43,110.46 96.86,115.29 102.53,127.34 C104.90,132.38 107.66,137.27 108.67,138.22 C115.17,144.30 115.07,144.89 107.61,144.43 C103.78,144.20 102.06,143.48 99.61,141.13 C96.77,138.38 92.27,136.00 89.93,136.00 C89.42,136.00 88.99,137.01 88.98,138.25 C88.98,139.49 88.55,141.16 88.04,141.97 C86.71,144.07 88.67,146.00 92.12,146.00 C93.71,146.00 95.00,146.45 95.00,147.00 C95.00,147.55 93.09,148.02 90.75,148.04 C88.41,148.05 85.38,148.71 84.00,149.50 C80.79,151.33 78.07,151.53 79.80,149.80 ZM 84.00 143.51 C84.00,143.28 82.87,141.43 81.50,139.40 L 79.00 135.71 L 77.92 138.80 C77.33,140.50 76.09,142.06 75.17,142.29 C73.75,142.63 73.79,142.80 75.50,143.42 C76.60,143.82 78.18,144.51 79.00,144.95 C80.33,145.67 84.00,144.61 84.00,143.51 ZM 133.87 142.99 C129.19,140.52 125.35,135.91 124.04,131.22 C122.75,126.55 122.75,125.43 124.11,120.55 C125.41,115.85 136.51,103.82 142.25,100.88 C144.31,99.82 146.00,98.53 146.00,98.00 C146.00,96.12 159.45,82.81 163.36,80.82 C169.33,77.77 179.38,78.53 184.47,82.41 C191.23,87.56 193.97,98.17 190.40,105.30 C188.15,109.77 177.25,120.76 172.75,123.10 C170.69,124.17 169.00,125.53 169.00,126.12 C169.00,127.97 155.69,141.10 151.79,143.10 C146.93,145.59 138.69,145.54 133.87,142.99 ZM 147.80 135.60 C149.28,134.83 153.09,131.49 156.25,128.18 C161.58,122.59 162.00,121.81 162.00,117.44 C162.00,113.32 161.55,112.31 158.34,109.28 C155.12,106.25 154.79,105.50 155.61,103.17 C156.12,101.71 157.34,100.37 158.32,100.18 C161.07,99.65 166.56,104.45 169.03,109.56 L 171.26 114.17 L 176.58 108.92 C183.27,102.31 184.60,99.35 183.02,94.57 C181.52,90.01 177.66,87.00 173.30,87.00 C168.82,87.00 166.52,88.25 160.67,93.87 C155.32,99.00 153.00,102.74 153.00,106.20 C153.01,109.39 156.43,114.68 159.02,115.50 C160.76,116.06 161.05,116.69 160.52,118.84 C160.16,120.30 159.25,122.14 158.48,122.92 C156.36,125.08 149.53,120.15 146.77,114.47 C145.58,112.01 144.34,110.00 144.02,110.00 C143.69,110.00 141.07,112.39 138.18,115.31 C130.41,123.18 130.05,130.62 137.23,135.00 C141.08,137.35 144.09,137.52 147.80,135.60 ZM 0.06 52.25 L 0.00 0.00 L 112.50 0.00 L 225.00 0.00 L 224.93 52.25 C224.87,99.85 224.74,104.01 223.42,99.00 C218.33,79.72 202.24,63.42 183.46,58.53 C174.69,56.25 51.31,56.25 42.55,58.53 C29.23,62.00 14.91,72.51 8.36,83.62 C6.79,86.29 4.29,92.08 2.81,96.48 L 0.11 104.50 L 0.06 52.25 Z" fill="rgb(254,254,254)"/>
</g>
</svg>