<svg xmlns="http://www.w3.org/2000/svg" width="225" height="225" viewBox="0 0 225 225">
<g>
<path d="M 61.00 124.50 C61.00,129.25 60.64,131.00 59.67,131.00 C58.93,131.00 58.03,130.70 57.67,130.33 C57.30,129.97 57.00,123.44 57.00,115.83 L 57.00 102.00 L 65.00 102.00 C74.43,102.00 77.00,103.62 77.00,109.55 C77.00,115.14 73.46,118.00 66.55,118.00 L 61.00 118.00 ZM 163.99 130.51 C162.40,131.33 160.51,132.00 159.80,132.00 C157.29,131.99 152.08,128.06 150.49,124.97 C145.45,115.23 159.21,106.06 167.08,113.92 C172.17,119.02 170.68,127.05 163.99,130.51 ZM 209.88 129.93 C205.94,132.33 204.64,132.42 200.31,130.54 C195.13,128.28 192.61,121.58 195.12,116.68 C199.27,108.57 211.48,109.09 213.58,117.47 C214.79,122.28 213.72,123.00 205.41,123.00 L 197.76 123.00 L 199.24 125.25 C201.00,127.91 205.37,128.67 208.68,126.90 C210.41,125.98 211.34,125.94 212.15,126.75 C212.97,127.57 212.37,128.41 209.88,129.93 ZM 124.88 129.93 C123.02,131.06 120.60,131.98 119.50,131.96 C114.46,131.86 109.00,126.17 109.00,121.00 C109.00,117.69 111.61,113.50 114.47,112.19 C121.35,109.06 128.03,112.41 128.34,119.16 L 128.50 122.50 L 112.95 123.50 L 114.53 125.75 C116.31,128.28 120.80,128.77 123.99,126.78 C125.48,125.85 126.23,125.83 127.11,126.71 C127.99,127.59 127.45,128.37 124.88,129.93 ZM 92.00 125.57 C92.00,129.73 91.65,131.00 90.50,131.00 C89.27,131.00 89.00,129.22 89.00,121.00 C89.00,113.04 89.29,111.00 90.42,111.00 C91.20,111.00 92.04,111.56 92.29,112.25 C92.66,113.25 93.01,113.25 94.07,112.25 C96.12,110.32 102.42,110.70 104.39,112.88 C106.70,115.43 106.37,130.50 104.00,130.50 C102.84,130.50 102.39,128.78 102.00,123.00 L 101.50 115.50 L 97.75 115.19 C94.49,114.92 93.87,115.22 93.00,117.50 C92.45,118.95 92.00,122.58 92.00,125.57 ZM 177.00 125.57 C177.00,129.73 176.65,131.00 175.50,131.00 C174.27,131.00 174.00,129.22 174.00,121.00 C174.00,113.04 174.29,111.00 175.42,111.00 C176.20,111.00 177.04,111.56 177.29,112.25 C177.66,113.25 178.01,113.25 179.07,112.25 C179.80,111.56 182.10,111.00 184.18,111.00 C189.67,111.00 191.17,113.76 190.80,123.14 C190.57,128.88 190.17,130.50 189.00,130.50 C187.83,130.50 187.44,128.90 187.21,123.26 C186.89,115.41 185.54,113.52 181.08,114.69 C178.23,115.43 177.00,118.71 177.00,125.57 ZM 146.08 130.46 C142.17,132.48 140.17,132.40 136.31,130.05 C132.37,127.64 131.00,125.18 131.00,120.49 C131.00,115.07 135.39,111.00 141.23,111.00 C143.64,111.00 146.42,111.59 147.40,112.30 C148.98,113.46 149.01,113.74 147.65,114.87 C146.50,115.83 145.62,115.87 144.03,115.01 C137.87,111.72 132.37,119.80 136.63,125.89 C138.09,127.97 138.80,128.15 143.06,127.59 C148.78,126.83 150.31,128.27 146.08,130.46 ZM 155.59 126.10 C157.71,128.44 161.73,128.56 164.17,126.35 C166.46,124.27 166.63,117.77 164.45,115.96 C162.29,114.17 157.23,114.34 155.30,116.27 C153.23,118.34 153.39,123.66 155.59,126.10 ZM 61.67 114.33 C62.90,115.57 68.53,115.01 70.78,113.44 C73.53,111.51 73.69,107.44 71.07,106.04 C70.00,105.47 67.30,105.00 65.07,105.00 L 61.00 105.00 L 61.00 109.33 C61.00,111.72 61.30,113.97 61.67,114.33 ZM 198.46 118.94 C199.29,120.27 208.67,120.34 209.49,119.02 C210.80,116.90 207.98,114.00 204.62,114.00 C201.11,114.00 197.30,117.06 198.46,118.94 ZM 113.60 119.16 C113.89,119.62 116.36,120.00 119.09,120.00 C122.78,120.00 124.23,119.58 124.69,118.36 C125.50,116.24 122.50,114.00 118.87,114.00 C116.10,114.00 112.56,117.48 113.60,119.16 ZM 84.00 121.00 C84.00,129.22 83.73,131.00 82.50,131.00 C81.27,131.00 81.00,129.22 81.00,121.00 C81.00,112.78 81.27,111.00 82.50,111.00 C83.73,111.00 84.00,112.78 84.00,121.00 ZM 30.00 122.44 C30.00,123.23 29.55,124.16 28.99,124.50 C27.72,125.29 26.58,122.49 27.54,120.94 C28.04,120.13 27.58,120.00 26.01,120.50 C22.95,121.47 23.74,119.34 27.21,117.23 C29.75,115.69 29.96,115.72 31.90,118.06 C34.09,120.69 34.61,123.00 33.00,123.00 C32.45,123.00 32.00,122.55 32.00,122.00 C32.00,121.45 31.55,121.00 31.00,121.00 C30.45,121.00 30.00,121.65 30.00,122.44 ZM 32.00 111.43 C32.00,112.29 31.29,113.00 30.43,113.00 C29.30,113.00 29.05,112.42 29.53,110.90 C30.10,109.12 29.88,108.90 28.10,109.47 C24.64,110.57 25.57,107.42 29.14,105.94 C32.03,104.74 32.44,104.82 34.14,106.93 C36.56,109.91 36.50,111.29 34.00,110.50 C32.58,110.05 32.00,110.32 32.00,111.43 ZM 16.50 116.00 C17.39,118.79 15.56,118.50 13.62,115.54 C11.56,112.40 11.59,111.68 13.83,109.65 C16.38,107.34 18.29,107.52 17.50,110.00 C17.05,111.42 17.32,112.00 18.43,112.00 C19.29,112.00 20.00,112.45 20.00,113.00 C20.00,113.55 19.07,114.00 17.93,114.00 C16.32,114.00 16.00,114.44 16.50,116.00 ZM 34.00 98.44 C34.00,99.23 33.58,100.14 33.07,100.46 C31.88,101.19 30.68,99.32 31.50,98.00 C31.84,97.45 31.19,97.00 30.06,97.00 C27.24,97.00 27.47,95.62 30.57,93.97 C32.38,92.99 33.60,92.89 34.75,93.61 C37.07,95.08 38.57,97.77 37.58,98.70 C37.11,99.14 36.53,98.94 36.28,98.25 C35.67,96.53 34.00,96.67 34.00,98.44 ZM 46.86 119.67 C46.20,120.46 44.87,121.54 43.89,122.06 C41.58,123.30 40.35,121.46 42.64,120.18 C44.15,119.34 44.10,119.17 42.16,118.55 C39.39,117.67 39.36,116.00 42.11,116.00 C43.57,116.00 44.04,115.54 43.64,114.50 C42.62,111.85 45.63,112.88 46.87,115.61 C47.79,117.63 47.79,118.55 46.86,119.67 ZM 41.01 128.97 C40.05,131.29 39.12,132.00 37.05,132.00 C35.55,132.00 34.03,131.70 33.67,131.33 C32.37,130.04 33.02,129.00 35.12,129.00 C36.91,129.00 37.05,128.76 35.98,127.48 C34.42,125.59 35.45,124.30 37.30,125.83 C38.30,126.66 38.95,126.65 39.81,125.79 C41.69,123.91 42.37,125.70 41.01,128.97 ZM 45.28 106.75 C44.76,110.06 43.00,111.33 43.00,108.39 C43.00,107.18 42.39,106.94 40.50,107.41 C37.64,108.13 37.14,106.59 39.75,105.11 C41.39,104.18 41.37,104.01 39.50,102.49 C37.58,100.92 37.64,100.88 40.97,101.45 C45.41,102.20 45.89,102.80 45.28,106.75 ZM 22.49 103.99 C21.20,102.92 20.70,103.02 19.50,104.60 C18.13,106.42 18.06,106.39 18.05,104.00 C18.02,100.50 19.01,99.36 22.75,98.55 C25.34,97.98 26.00,98.16 26.00,99.42 C26.00,100.29 25.27,101.00 24.38,101.00 C23.04,101.00 22.98,101.27 24.02,102.52 C25.68,104.52 24.50,105.66 22.49,103.99 ZM 21.44 128.10 C20.77,129.17 20.20,129.16 17.25,127.97 C15.51,127.27 15.00,126.26 15.00,123.53 C15.00,121.59 15.45,120.00 16.00,120.00 C16.55,120.00 17.00,120.90 17.00,122.01 C17.00,123.75 17.26,123.86 18.95,122.80 C21.55,121.18 23.03,122.77 20.59,124.55 C18.89,125.80 18.86,126.01 20.34,126.58 C21.25,126.93 21.74,127.61 21.44,128.10 ZM 84.82 104.24 C84.27,108.07 80.00,107.71 80.00,103.83 C80.00,102.53 80.74,102.00 82.57,102.00 C84.66,102.00 85.08,102.42 84.82,104.24 ZM 28.82 130.67 C28.24,133.68 25.00,133.40 25.00,130.33 C25.00,129.60 25.93,129.00 27.07,129.00 C28.47,129.00 29.04,129.54 28.82,130.67 Z" fill="rgb(10,10,10)"/>
<path d="M 0.00 112.50 L 0.00 0.00 L 112.50 0.00 L 225.00 0.00 L 225.00 112.50 L 225.00 225.00 L 112.50 225.00 L 0.00 225.00 L 0.00 112.50 ZM 28.82 130.67 C29.04,129.54 28.47,129.00 27.07,129.00 C25.93,129.00 25.00,129.60 25.00,130.33 C25.00,133.40 28.24,133.68 28.82,130.67 ZM 41.01 128.97 C42.37,125.70 41.69,123.91 39.81,125.79 C38.95,126.65 38.30,126.66 37.30,125.83 C35.45,124.30 34.42,125.59 35.98,127.48 C37.05,128.76 36.91,129.00 35.12,129.00 C33.02,129.00 32.37,130.04 33.67,131.33 C34.03,131.70 35.55,132.00 37.05,132.00 C39.12,132.00 40.05,131.29 41.01,128.97 ZM 124.88 129.93 C127.45,128.37 127.99,127.59 127.11,126.71 C126.23,125.83 125.48,125.85 123.99,126.78 C120.80,128.77 116.31,128.28 114.53,125.75 L 112.95 123.50 L 120.72 123.00 L 128.50 122.50 L 128.34 119.16 C128.03,112.41 121.35,109.06 114.47,112.19 C111.61,113.50 109.00,117.69 109.00,121.00 C109.00,126.17 114.46,131.86 119.50,131.96 C120.60,131.98 123.02,131.06 124.88,129.93 ZM 146.08 130.46 C150.31,128.27 148.78,126.83 143.06,127.59 C138.80,128.15 138.09,127.97 136.63,125.89 C132.37,119.80 137.87,111.72 144.03,115.01 C145.62,115.87 146.50,115.83 147.65,114.87 C149.01,113.74 148.98,113.46 147.40,112.30 C146.42,111.59 143.64,111.00 141.23,111.00 C135.39,111.00 131.00,115.07 131.00,120.49 C131.00,125.18 132.37,127.64 136.31,130.05 C140.17,132.40 142.17,132.48 146.08,130.46 ZM 163.99 130.51 C170.68,127.05 172.17,119.02 167.08,113.92 C159.21,106.06 145.45,115.23 150.49,124.97 C152.08,128.06 157.29,131.99 159.80,132.00 C160.51,132.00 162.40,131.33 163.99,130.51 ZM 209.88 129.93 C212.37,128.41 212.97,127.57 212.15,126.75 C211.34,125.94 210.41,125.98 208.68,126.90 C205.37,128.67 201.00,127.91 199.24,125.25 L 197.76 123.00 L 205.41 123.00 C213.72,123.00 214.79,122.28 213.58,117.47 C211.48,109.09 199.27,108.57 195.12,116.68 C192.61,121.58 195.13,128.28 200.31,130.54 C204.64,132.42 205.94,132.33 209.88,129.93 ZM 61.00 124.50 L 61.00 118.00 L 66.55 118.00 C73.46,118.00 77.00,115.14 77.00,109.55 C77.00,103.62 74.43,102.00 65.00,102.00 L 57.00 102.00 L 57.00 115.83 C57.00,123.44 57.30,129.97 57.67,130.33 C58.03,130.70 58.93,131.00 59.67,131.00 C60.64,131.00 61.00,129.25 61.00,124.50 ZM 84.00 121.00 C84.00,112.78 83.73,111.00 82.50,111.00 C81.27,111.00 81.00,112.78 81.00,121.00 C81.00,129.22 81.27,131.00 82.50,131.00 C83.73,131.00 84.00,129.22 84.00,121.00 ZM 92.00 125.57 C92.00,122.58 92.45,118.95 93.00,117.50 C93.87,115.22 94.49,114.92 97.75,115.19 L 101.50 115.50 L 102.00 123.00 C102.39,128.78 102.84,130.50 104.00,130.50 C106.37,130.50 106.70,115.43 104.39,112.88 C102.42,110.70 96.12,110.32 94.07,112.25 C93.01,113.25 92.66,113.25 92.29,112.25 C92.04,111.56 91.20,111.00 90.42,111.00 C89.29,111.00 89.00,113.04 89.00,121.00 C89.00,129.22 89.27,131.00 90.50,131.00 C91.65,131.00 92.00,129.73 92.00,125.57 ZM 177.00 125.57 C177.00,118.71 178.23,115.43 181.08,114.69 C185.54,113.52 186.89,115.41 187.21,123.26 C187.44,128.90 187.83,130.50 189.00,130.50 C190.17,130.50 190.57,128.88 190.80,123.14 C191.17,113.76 189.67,111.00 184.18,111.00 C182.10,111.00 179.80,111.56 179.07,112.25 C178.01,113.25 177.66,113.25 177.29,112.25 C177.04,111.56 176.20,111.00 175.42,111.00 C174.29,111.00 174.00,113.04 174.00,121.00 C174.00,129.22 174.27,131.00 175.50,131.00 C176.65,131.00 177.00,129.73 177.00,125.57 ZM 21.44 128.10 C21.74,127.61 21.25,126.93 20.34,126.58 C18.86,126.01 18.89,125.80 20.59,124.55 C23.03,122.77 21.55,121.18 18.95,122.80 C17.26,123.86 17.00,123.75 17.00,122.01 C17.00,120.90 16.55,120.00 16.00,120.00 C15.45,120.00 15.00,121.59 15.00,123.53 C15.00,126.26 15.51,127.27 17.25,127.97 C20.20,129.16 20.77,129.17 21.44,128.10 ZM 30.00 122.44 C30.00,121.65 30.45,121.00 31.00,121.00 C31.55,121.00 32.00,121.45 32.00,122.00 C32.00,122.55 32.45,123.00 33.00,123.00 C34.61,123.00 34.09,120.69 31.90,118.06 C29.96,115.72 29.75,115.69 27.21,117.23 C23.74,119.34 22.95,121.47 26.01,120.50 C27.58,120.00 28.04,120.13 27.54,120.94 C26.58,122.49 27.72,125.29 28.99,124.50 C29.55,124.16 30.00,123.23 30.00,122.44 ZM 46.86 119.67 C47.79,118.55 47.79,117.63 46.87,115.61 C45.63,112.88 42.62,111.85 43.64,114.50 C44.04,115.54 43.57,116.00 42.11,116.00 C39.36,116.00 39.39,117.67 42.16,118.55 C44.10,119.17 44.15,119.34 42.64,120.18 C40.35,121.46 41.58,123.30 43.89,122.06 C44.87,121.54 46.20,120.46 46.86,119.67 ZM 16.50 116.00 C16.00,114.44 16.32,114.00 17.93,114.00 C19.07,114.00 20.00,113.55 20.00,113.00 C20.00,112.45 19.29,112.00 18.43,112.00 C17.32,112.00 17.05,111.42 17.50,110.00 C18.29,107.52 16.38,107.34 13.83,109.65 C11.59,111.68 11.56,112.40 13.62,115.54 C15.56,118.50 17.39,118.79 16.50,116.00 ZM 32.00 111.43 C32.00,110.32 32.58,110.05 34.00,110.50 C36.50,111.29 36.56,109.91 34.14,106.93 C32.44,104.82 32.03,104.74 29.14,105.94 C25.57,107.42 24.64,110.57 28.10,109.47 C29.88,108.90 30.10,109.12 29.53,110.90 C29.05,112.42 29.30,113.00 30.43,113.00 C31.29,113.00 32.00,112.29 32.00,111.43 ZM 45.28 106.75 C45.89,102.80 45.41,102.20 40.97,101.45 C37.64,100.88 37.58,100.92 39.50,102.49 C41.37,104.01 41.39,104.18 39.75,105.11 C37.14,106.59 37.64,108.13 40.50,107.41 C42.39,106.94 43.00,107.18 43.00,108.39 C43.00,111.33 44.76,110.06 45.28,106.75 ZM 84.82 104.24 C85.08,102.42 84.66,102.00 82.57,102.00 C80.74,102.00 80.00,102.53 80.00,103.83 C80.00,107.71 84.27,108.07 84.82,104.24 ZM 22.49 103.99 C24.50,105.66 25.68,104.52 24.02,102.52 C22.98,101.27 23.04,101.00 24.38,101.00 C25.27,101.00 26.00,100.29 26.00,99.42 C26.00,98.16 25.34,97.98 22.75,98.55 C19.01,99.36 18.02,100.50 18.05,104.00 C18.06,106.39 18.13,106.42 19.50,104.60 C20.70,103.02 21.20,102.92 22.49,103.99 ZM 34.00 98.44 C34.00,96.67 35.67,96.53 36.28,98.25 C36.53,98.94 37.11,99.14 37.58,98.70 C38.57,97.77 37.07,95.08 34.75,93.61 C33.60,92.89 32.38,92.99 30.57,93.97 C27.47,95.62 27.24,97.00 30.06,97.00 C31.19,97.00 31.84,97.45 31.50,98.00 C30.68,99.32 31.88,101.19 33.07,100.46 C33.58,100.14 34.00,99.23 34.00,98.44 ZM 113.60 119.16 C112.56,117.48 116.10,114.00 118.87,114.00 C122.50,114.00 125.50,116.24 124.69,118.36 C124.23,119.58 122.78,120.00 119.09,120.00 C116.36,120.00 113.89,119.62 113.60,119.16 ZM 155.59 126.10 C153.39,123.66 153.23,118.34 155.30,116.27 C157.23,114.34 162.29,114.17 164.45,115.96 C166.63,117.77 166.46,124.27 164.17,126.35 C161.73,128.56 157.71,128.44 155.59,126.10 ZM 198.46 118.94 C197.30,117.06 201.11,114.00 204.62,114.00 C207.98,114.00 210.80,116.90 209.49,119.02 C208.67,120.34 199.29,120.27 198.46,118.94 ZM 61.67 114.33 C61.30,113.97 61.00,111.72 61.00,109.33 L 61.00 105.00 L 65.07 105.00 C67.30,105.00 70.00,105.47 71.07,106.04 C73.69,107.44 73.53,111.51 70.78,113.44 C68.53,115.01 62.90,115.57 61.67,114.33 Z" fill="rgb(254,254,254)"/>
</g>
</svg>